<?xml version="1.0" standalone="no"?>
<!DOCTYPE svg PUBLIC "-//W3C//DTD SVG 1.1//EN" "http://www.w3.org/Graphics/SVG/1.1/DTD/svg11.dtd" >
<svg xmlns="http://www.w3.org/2000/svg" xmlns:xlink="http://www.w3.org/1999/xlink" version="1.1">
<metadata>
Created by FontForge 20161003 at Sat Dec 21 09:03:58 2019
 By www-data
(c) Copyright SoftMaker Software GmbH and its licensors
</metadata>
<defs>
<font id="A771ROMANBOLD" horiz-adv-x="549" >
  <font-face 
    font-family="A771ROMANBOLD"
    font-weight="700"
    font-stretch="normal"
    units-per-em="1000"
    panose-1="0 0 7 0 0 0 0 0 0 0"
    ascent="800"
    descent="-200"
    x-height="436"
    cap-height="699"
    bbox="-186 -294 1080 926"
    underline-thickness="40"
    underline-position="-242"
    unicode-range="U+0020-2215"
  />
<missing-glyph horiz-adv-x="500" 
d="M31 0v926h438v-926h-438zM438 31v864h-376v-864h376z" />
    <glyph glyph-name=".notdef" horiz-adv-x="500" 
d="M31 0v926h438v-926h-438zM438 31v864h-376v-864h376z" />
    <glyph glyph-name=".null" horiz-adv-x="0" 
 />
    <glyph glyph-name="nonmarkingreturn" horiz-adv-x="289" 
 />
    <glyph glyph-name="space" unicode=" " horiz-adv-x="289" 
 />
    <glyph glyph-name="exclam" unicode="!" horiz-adv-x="254" 
d="M149 710q40 0 56 -23q10 -16 10 -59q0 -21 -9 -87l-34 -260l-4 -45q-3 -15 -14 -18q-18 5 -18 76q0 75 -28 222q-16 91 -16 119q0 31 14.5 53t42.5 22zM149 131q30 0 50.5 -20t20.5 -50q0 -26 -22 -46.5t-48 -20.5q-28 0 -48 21t-20 47q0 28 20 48.5t47 20.5z" />
    <glyph glyph-name="quotedbl" unicode="&#x22;" horiz-adv-x="401" 
d="M20 431l14 8q22 9 43 30l14 14q30 33 38 80q-6 18 -21 20l-15 -2l-14 -2q-24 0 -41 17q-15 18 -15 43q0 30 21 49t51 19q41 0 67 -33q21 -30 21 -73q0 -52 -21 -85.5t-56 -64.5q-43 -37 -72 -37q-14 0 -16 12zM207 430l4 4q30 0 68 51t38 82q0 17 -18 17l-13 -2l-12 -1
q-62 0 -62 62q0 30 21 47t51 17q43 0 66 -35q20 -31 20 -73q0 -95 -99 -161q-37 -23 -49 -25l-11 2l-5 6l-1 4z" />
    <glyph glyph-name="numbersign" unicode="#" horiz-adv-x="533" 
d="M118 209h-99v68h109l26 195h-108v69h118l29 209h70l-29 -209h126l29 209h70l-29 -209h84v-68h-95l-27 -196h93v-68h-102l-29 -209h-70l29 209h-126l-29 -209h-70zM225 473l-27 -196h124l27 196h-124z" />
    <glyph glyph-name="dollar" unicode="$" horiz-adv-x="465" 
d="M424 170q0 -67 -39.5 -116t-104.5 -62l-33 -6l-2 -2l-1 -4l1 -6v-48l-1 -49q-5 -12 -31 -12l-5 2l-5 9v109q-74 0 -117 15t-53 39l-1 10l-1 23v25q0 34 2 39q0 24 9 35l9 3q4 -1 17 -31q13 -35 30 -58q24 -35 64 -54q24 -12 34 -12q6 0 7 4l1 36l-1 66l-1 65l1 33l1 33
l-6 14q-81 50 -103 70q-49 46 -49 110q0 67 35.5 114.5t101.5 62.5q8 0 18 5q1 5 2 14.5t1 17.5l-2 57q0 10 7 16l18 2q19 0 19 -31l-2 -24l-1 -24q0 -23 10 -27h6q19 0 47 -7q21 -3 32 -5.5t17 -5.5q18 -10 23 -42q0 -11 1 -37.5t1 -42.5q0 -12 -14 -15q-6 0 -9 8
q-39 115 -109 115l-5 -15l1 -26l1 -24l-1 -115l-1 -33q96 -51 127 -82q54 -51 54 -136zM205 597l-4 1l-4 1q-34 -7 -56 -32t-22 -59q0 -39 25 -65q13 -13 61 -38v192zM244 24l4 -6l6 -1q39 0 70.5 33t31.5 72q0 37 -29 66q-9 10 -22 20t-37 25l-22 10l-2 -3v-216z" />
    <glyph glyph-name="percent" unicode="%" horiz-adv-x="698" 
d="M140 627q53 0 89 -69q28 -58 28 -118q0 -76 -24 -133q-33 -75 -101 -75q-62 0 -96 70q-27 54 -27 124q0 74 27 131q37 70 104 70zM479 615h19l5 -8l-17 -35q-41 -87 -63 -133q-30 -63 -83 -171q-22 -45 -103 -210q-8 -19 -28 -52l-7 -4h-17l-4 2l-3 6l74 147l132 277
l73 148q15 33 22 33zM132 257q55 0 55 169q0 71 -6 103q-12 74 -49 74q-53 0 -53 -178q0 -168 53 -168zM540 390q62 0 98 -66q29 -55 29 -123q0 -75 -25 -131q-33 -74 -99 -74q-61 0 -95 70q-27 54 -27 123q0 71 24 128q32 73 95 73zM489 164q0 -144 58 -144q34 0 46 73
l4 102q0 172 -57 172q-26 0 -41 -56q-4 -18 -7 -39.5t-3 -42.5v-65z" />
    <glyph glyph-name="ampersand" unicode="&#x26;" horiz-adv-x="741" 
d="M174 342l4 8l-1 4q-53 73 -53 123q0 66 59 107q25 16 55.5 25t66.5 9q53 0 94 -28q46 -32 46 -82q0 -45 -26 -74q-15 -15 -51 -32.5t-43 -28.5v-5q0 -11 65.5 -80.5t82.5 -75.5q18 3 58 65t40 83q0 5 -6 11l-36 4q-24 3 -28 17q0 18 42 18l23 -2l23 -1l57 3l58 5
q13 0 14 -13l-1 -4l-1 -4l-3 -3q-67 -15 -101 -52l-68 -91q-45 -56 -45 -65q0 -12 44 -56q26 -25 42 -41q13 -12 24 -21q23 -16 84 -38q12 -3 17.5 -7t7.5 -15q0 -12 -16 -12t-50.5 6t-53.5 6l-75 -4l-74 -4q-12 0 -12 11l3 14q21 8 24 25q-5 13 -17 24l-23 22l-8 4
q-12 -3 -44 -29q-26 -21 -47.5 -36.5t-39.5 -25.5q-49 -26 -103 -26l-27 3q-59 0 -101 54.5t-42 113.5q0 50 33 98q30 42 80 67q10 4 27 13.5t22 12.5zM218 529q0 -27 30 -79t57 -52l14 4q23 12 39 48t16 63q0 35 -24 58q-24 21 -62 21q-70 0 -70 -63zM255 50q25 0 79 24
q58 27 58 49l-2 5l-100 108q-83 89 -91 89q-5 0 -17 -9q-62 -48 -62 -123q0 -62 36 -102.5t99 -40.5z" />
    <glyph glyph-name="quotesingle" unicode="'" horiz-adv-x="211" 
d="M184 706l5 -3l3 -5q0 -7 -27 -28q-36 -25 -50 -41q-27 -29 -27 -60q0 -30 19 -40h6l10 2l10 2q22 0 39.5 -15.5t17.5 -38.5q0 -32 -26 -54q-6 -5 -17 -10.5t-29 -5.5q-40 0 -64.5 34t-24.5 76q0 50 53 118.5t102 68.5z" />
    <glyph glyph-name="parenleft" unicode="(" horiz-adv-x="401" 
d="M284 763l41 31q31 23 44 23q10 0 17 -10v-4l-3 -8l-54 -50q-32 -30 -48 -56q-41 -65 -63 -167t-22 -237q0 -203 76 -358q30 -61 100 -113q12 -9 13 -16v-6q0 -6 -15 -8q-24 0 -86 46q-92 68 -143 207q-41 117 -41 252q0 113 63 247z" />
    <glyph glyph-name="parenright" unicode=")" horiz-adv-x="401" 
d="M205 311q0 267 -106 409q-12 16 -41 41l-40 37l-2 9q0 8 15 10q29 0 99 -55q86 -67 133 -204q38 -116 38 -244q0 -304 -183 -474q-61 -55 -92 -55q-5 0 -11 9l1 5q0 6 8 13l64 60q28 29 50 72q67 131 67 367z" />
    <glyph glyph-name="asterisk" unicode="*" horiz-adv-x="486" 
d="M241 710q16 0 28 -12.5t12 -30.5q0 -23 -15 -72.5t-15 -76.5l-10 -7l-3 1l-5 6q0 26 -17 69q-3 8 -9.5 31t-6.5 37q0 55 41 55zM79 619q23 0 68 -45q49 -52 69 -61q3 -3 5 -10l-6 -8h-6l-56 18l-68 18q-46 17 -46 44q0 18 11.5 31t28.5 13zM259 509l53 44l40 41
q28 25 49 25q15 0 27.5 -12.5t12.5 -27.5q0 -30 -44 -48q-13 -6 -72 -18q-7 0 -30 -10l-30 -7q-6 2 -6 8v5zM211 481l10 -4l1 -7l-2 -3l-46 -38l-41 -45q-27 -27 -52 -27q-16 0 -28 11q-9 11 -11 28q0 29 41 47q16 3 28 6t38 11l32 12q23 9 30 9zM265 477l5 1q17 -8 59 -22
l68 -14q41 -14 41 -46q0 -17 -11 -28.5t-28 -11.5q-26 0 -89 70l-25 19q-17 11 -26 22zM233 459l6 4l9 -7l8 -44l14 -50q8 -32 8 -51q0 -17 -10.5 -30t-27.5 -15q-41 0 -41 50q0 5 3 21.5t11 48.5q16 64 20 73z" />
    <glyph glyph-name="plus" unicode="+" horiz-adv-x="655" 
d="M31 318h261v258h57v-258h260v-59h-260v-259h-57v259h-261v59z" />
    <glyph glyph-name="comma" unicode="," horiz-adv-x="211" 
d="M30 -164q6 10 36 31q33 21 44.5 34.5t17.5 27.5t6 32q0 40 -24 40l-12 -2l-12 -3q-20 0 -36 15t-16 38q0 27 23 53l22 11q12 6 25 6q38 0 63.5 -31.5t25.5 -70.5q0 -88 -92 -161q-43 -33 -63 -33l-7 4z" />
    <glyph glyph-name="hyphen" unicode="-" horiz-adv-x="297" 
d="M32 277q0 15 25 72l8 6l51 -4l53 1l52 1q36 0 47 -4q6 -5 6 -13q0 -6 -11.5 -37.5t-17.5 -36.5l-63 -1h-29h-26h-20h-16h-12q-39 0 -43 5z" />
    <glyph glyph-name="period" unicode="." horiz-adv-x="211" 
d="M54 99q14 15 27.5 23t27.5 8q30 0 49 -20q20 -18 20 -48q0 -28 -19.5 -47.5t-47.5 -19.5t-48 20q-18 21 -18 48z" />
    <glyph glyph-name="slash" unicode="/" horiz-adv-x="276" 
d="M10 21l150 468q11 39 22 76.5t31 101.5l10 26q6 8 25 8q9 0 17 -5l5 -5l-26 -87l-51 -162l-84 -271l-47 -146l-9 -20q-5 -6 -22 -7q-14 0 -23 10z" />
    <glyph glyph-name="zero" unicode="0" horiz-adv-x="445" 
d="M222 627q102 0 156 -114q43 -92 43 -204q0 -116 -43 -206q-54 -115 -159 -115q-103 0 -158 113q-42 87 -42 204q0 119 44 207q54 115 159 115zM219 20q96 0 96 299q0 277 -93 277q-96 0 -96 -308q0 -268 93 -268z" />
    <glyph glyph-name="one" unicode="1" horiz-adv-x="444" 
d="M57 552q0 11 36 23l46 10q23 4 60.5 25.5t55.5 26.5q8 -2 14 -9l2 -5v-7l-2 -42l-1 -42l1 -146l1 -171q0 -138 10 -154.5t56 -22.5q43 0 54 -15l1 -7l-2 -9l-8 -6l-7 -1l-51 4l-52 4h-55l-56 -3l-54 -3q-28 0 -28 22q0 14 43 14q42 0 48 25q3 14 3 45l-1 97l-1 97l2 80
l1 79q0 44 -3 66.5t-20 22.5q-13 0 -38 -9t-38 -9q-17 0 -17 20z" />
    <glyph glyph-name="two" unicode="2" horiz-adv-x="444" 
d="M272 468q0 43 -23 70q-26 31 -66 31q-36 0 -68 -22q-18 -13 -43 -41q-19 -21 -29 -22q-12 0 -14 15q0 39 62.5 83.5t104.5 44.5q78 0 131 -44t53 -122q0 -45 -30 -92q-12 -21 -62 -77l-109 -124q-8 -8 -21 -24t-29 -37l-1 -5q0 -9 20 -9l63 1h64q39 0 48 3q20 6 32 34
q6 6 11 6q10 0 15 -8l1 -5q-11 -44 -11 -108q-6 -16 -32 -16l-57 2l-56 3h-62l-69 -3l-70 -2l-3 1l-8 4l-2 3l-1 4q9 18 32 44l37 42q82 109 122 176q70 119 70 194z" />
    <glyph glyph-name="three" unicode="3" horiz-adv-x="444" 
d="M70 39q17 0 47.5 -30.5t63.5 -30.5q46 0 83 71q31 62 31 113q0 60 -32 107t-91 47q-27 0 -61 -19l-35 -19l-9 2q-9 6 -9 18q3 12 50 57l84 87q45 53 45 85q0 23 -14.5 45.5t-38.5 22.5q-30 0 -67.5 -37t-44.5 -38q-15 0 -15 15q0 36 52 72t89 36q58 0 93 -26
q40 -31 40 -85q0 -29 -32 -61q-6 -6 -16 -14q-19 -15 -44 -33q-32 -21 -33 -28l3 -3q14 0 45 -7q133 -28 133 -171q0 -103 -77.5 -190.5t-179.5 -87.5q-99 0 -99 49q0 13 12 32.5t27 20.5z" />
    <glyph glyph-name="four" unicode="4" horiz-adv-x="444" 
d="M225 227q21 0 21 48l-2 32l-2 31v82q0 40 28 55l63 15q7 0 8 -8v-111l-3 -63l-2 -63q0 -22 35 -22l24 2l24 2l9 -6q3 -5 3 -15q0 -18 -12 -24l-31 1l-32 1q-21 0 -21 -42l1 -15v-15q0 -54 12 -66q9 -9 65 -22l3 -9q0 -15 -16 -15l-39 2l-38 3l-67 -3l-68 -2q-12 0 -18 11
l2 6t5 7l51 18q17 14 17 49v39q0 36 -5 45q-4 13 -99 13q-18 0 -57 1t-60 1l-10 12l-1 6q21 75 144 249q48 69 95 129q44 56 88 107q19 22 39 22q27 0 36 -16q-1 -5 -75 -89q-177 -201 -274 -377l80 -3z" />
    <glyph glyph-name="five" unicode="5" horiz-adv-x="444" 
d="M27 -20q12 7 39 12q91 20 153 67q80 57 80 138q0 73 -67 110q-37 20 -127 35q-69 11 -72 23l1 5q0 16 30 123t35.5 113.5t37 12t80.5 5.5q37 0 73.5 3t58.5 5q5 -3 5 -11q0 -52 -16 -75q-8 -12 -73 -12q-39 0 -70 -2t-45 -4q-60 -9 -60 -41q0 -7 2 -11q7 -21 28 -28
q5 -3 40 -9q229 -42 229 -206q0 -109 -85 -182q-68 -59 -188 -86q-21 -5 -41 -8t-33 -3q-18 0 -18 16z" />
    <glyph glyph-name="six" unicode="6" horiz-adv-x="445" 
d="M429 707l13 -2l4 -3l2 -14q0 -6 -37 -21l-46 -16q-96 -44 -148 -125q-33 -51 -61 -142.5t-28 -155.5q0 -74 16 -129q24 -83 80 -83q52 0 81 60q20 46 20 107q0 165 -109 165q-9 2 -12 12q-1 10 39 20l51 7q61 0 101 -59q33 -51 33 -117q0 -92 -55.5 -158.5t-146.5 -66.5
q-99 0 -156 88q-49 77 -49 180q0 149 105 279t253 166q35 8 50 8z" />
    <glyph glyph-name="seven" unicode="7" horiz-adv-x="444" 
d="M8 615l2 4l7 6q33 -4 63 -4.5t58 -0.5l137 2l137 3q5 0 10 -12l-54 -125l-103 -248q-51 -134 -91 -253l-7 -18q-4 -9 -15 -12q-11 0 -29 5l-4 6l-1 3l35 93l166 454l-1 5q-13 10 -148 10q-96 0 -147 -8q-4 2 -6 3.5t-2 2.5q-7 16 -7 49v35z" />
    <glyph glyph-name="eight" unicode="8" horiz-adv-x="445" 
d="M164 301l-1 3l-26 14q-43 23 -69 61q-29 43 -29 87q0 72 56.5 119.5t129.5 47.5q69 0 120 -35q59 -39 59 -104q0 -58 -35 -87q-16 -13 -84 -45l-4 -5l2 -3q52 -16 93.5 -69t41.5 -108q0 -86 -66 -140q-61 -49 -150 -49q-73 0 -127 41q-60 45 -60 116q0 62 50 106
q27 24 62.5 34.5t36.5 15.5zM253 376q32 0 50 44q12 32 12 71q0 45 -25 80t-68 35q-35 0 -63.5 -30t-28.5 -65q0 -41 41.5 -88t81.5 -47zM217 15q42 0 73 41q28 37 28 81q0 46 -37 95.5t-83 49.5q-43 0 -69 -36q-22 -33 -22 -78q0 -53 28 -99q32 -54 82 -54z" />
    <glyph glyph-name="nine" unicode="9" horiz-adv-x="445" 
d="M211 629q99 0 156 -78q51 -69 51 -173q0 -127 -59 -242t-165 -178q-54 -33 -91 -42l-67 -16q-14 0 -14 13q0 11 8 16l56 26q58 26 104 69q122 113 122 363q0 74 -17 128q-24 82 -82 82q-48 0 -75 -59q-21 -47 -21 -102q0 -48 18 -98q23 -64 64 -64l18 3l18 3l7 -3l3 -5
q-3 -16 -33 -33q-32 -16 -50 -16q-65 0 -108 64q-39 57 -39 125q0 80 57 148.5t139 68.5z" />
    <glyph glyph-name="colon" unicode=":" horiz-adv-x="254" 
d="M90 395q0 27 19 45.5t46 18.5t45.5 -18.5t18.5 -47.5q0 -25 -19.5 -43t-47.5 -18q-27 0 -44.5 18.5t-17.5 44.5zM154 123q28 0 45.5 -17t17.5 -44t-18.5 -45t-46.5 -18q-26 0 -44 19q-16 19 -16 48q0 22 19 39.5t43 17.5z" />
    <glyph glyph-name="semicolon" unicode=";" horiz-adv-x="254" 
d="M68 398q0 23 18.5 42.5t43.5 19.5q71 0 71 -73q0 -28 -23 -45t-52 -17q-26 0 -42 22.5t-16 50.5zM131 125q41 0 71 -34q25 -33 25 -76q0 -57 -33 -104t-89 -74q-9 -6 -31 -12q-5 4 -7 6v4q4 4 6 7q8 9 19 18q30 24 46 43q25 33 25 67t-20 34l-15 -3l-13 -2q-23 0 -37 20
q-14 17 -14 41q0 27 19 46t48 19z" />
    <glyph glyph-name="less" unicode="&#x3c;" horiz-adv-x="583" 
d="M546 452l-431 -196l431 -195v-69l-515 233v63l515 233v-69z" />
    <glyph glyph-name="equal" unicode="=" horiz-adv-x="655" 
d="M-10 230h660v-58h-660v58zM-10 405h660v-59h-660v59z" />
    <glyph glyph-name="greater" unicode="&#x3e;" horiz-adv-x="583" 
d="M37 61l431 195l-431 196v69l515 -233v-63l-515 -233v69z" />
    <glyph glyph-name="question" unicode="?" horiz-adv-x="381" 
d="M133 717q79 0 142.5 -60t63.5 -137q0 -76 -48 -135q-22 -27 -91 -79q-48 -37 -53 -63l-3 -44l-3 -5q-4 -3 -15 -5l-4 1q-6 9 -9 31q0 126 9 149l103 82q53 50 53 115q0 36 -24 70t-61 34q-18 0 -47.5 -19.5t-46.5 -19.5q-29 0 -29 45q0 40 63 40zM136 133q26 0 47 -21
t21 -48q0 -24 -20 -47q-18 -23 -42 -23q-32 0 -54.5 19t-22.5 51q0 27 21 48t50 21z" />
    <glyph glyph-name="at" unicode="@" horiz-adv-x="1028" 
d="M536 507q-63 0 -111 -69q-43 -61 -43 -129q0 -40 23 -69t63 -29q61 0 109 72q42 65 42 131q0 34 -24 63.5t-59 29.5zM671 562h69l-73 -248q-17 -64 -19 -81q0 -30 21 -30q60 0 106 82q39 69 39 136q0 117 -82 189t-201 72q-133 0 -220.5 -94t-87.5 -229q0 -134 91 -225
t225 -91q69 0 134.5 30t110.5 85h68q-48 -80 -133.5 -129t-183.5 -49q-161 0 -273.5 111.5t-112.5 273.5q0 156 112 268.5t270 112.5q138 0 243 -89t105 -228q0 -101 -69 -193q-74 -99 -173 -99q-28 0 -46.5 18t-18.5 46q-58 -64 -123 -64q-64 0 -107 48t-43 114
q0 105 63 189q68 90 171 90q81 0 117 -79z" />
    <glyph glyph-name="A" unicode="A" horiz-adv-x="720" 
d="M-18 17q0 12 30 21q44 13 54 20q14 11 31 48l96 216q66 143 96 216l39 106q31 80 49 89q16 -7 40 -76l28 -91l100 -280l36 -104q21 -61 43 -100q15 -27 55 -43q33 -12 34 -25q0 -16 -24 -16q-11 0 -31 1t-45 4q-51 6 -77 6l-53 -2l-53 -2q-29 0 -29 20q0 15 31 19
q34 0 45 16q6 6 6 11q0 13 -25.5 94.5t-34.5 97.5q-6 15 -39 15l-48 -1l-49 -2l-33 2q-15 0 -24 -10l-13 -25q-29 -63 -45 -105.5t-16 -57.5q0 -30 45 -39.5t47 -24.5q0 -18 -17 -18l-60 4l-61 4q-17 0 -24 -0.5t-31 -4.5l-55 -5q-18 0 -18 22zM250 333q0 -8 19 -8h101
q25 0 26 16q0 15 -27 89q-8 20 -16 41q-13 31 -22 49q-4 3 -6 3l-2 -2l-41 -98q-32 -76 -32 -90z" />
    <glyph glyph-name="B" unicode="B" horiz-adv-x="655" 
d="M102 205l3 195l3 196l-2 39q-10 19 -52 19q-40 0 -48 13l-2 7q0 9 3 12t23 7q48 9 116 9l156 6q278 0 278 -163q0 -45 -28.5 -82.5t-71.5 -57.5l-2 -4l63 -39q79 -58 79 -154q0 -40 -17 -77q-42 -95 -154 -120q-50 -11 -205 -11l-110 -3l-110 -3l-16 3l-4 4l-2 10
q3 18 35 24l45 8q22 9 22 91l-1 35zM225 471q0 -42 11 -55.5t52 -13.5q74 0 121 34q53 39 53 111q0 128 -183 128q-39 0 -48 -47l-4 -78zM230 128q0 -92 98 -92q158 0 158 173q0 43 -20 79q-9 9 -11 21q-13 13 -26 18q-58 40 -143 40q-39 0 -50 -18q-2 -5 -3.5 -21t-1.5 -36
l-1 -87v-77z" />
    <glyph glyph-name="C" unicode="C" horiz-adv-x="677" 
d="M435 716q63 0 114 -11q77 -15 86 -47q11 -53 11 -93v-4l-1 -5q-3 -3 -10 -5l-30 35q-33 40 -70 64q-55 35 -116 35q-124 0 -192 -110q-59 -95 -59 -225q0 -134 54 -226q66 -110 192 -110q61 0 112 39q28 23 67 74q30 39 43 39l5 -1l3 -4l1 -3l-6 -42l-8 -55
q-5 -27 -29 -40q-31 -17 -92 -29q-24 -5 -49.5 -8t-47.5 -3q-104 0 -201 50q-104 54 -149 140q-37 74 -37 173q0 177 118 277q110 95 291 95z" />
    <glyph glyph-name="D" unicode="D" horiz-adv-x="803" 
d="M83 706q29 3 58.5 5t62.5 2h148q73 0 109 -7q134 -24 216.5 -124.5t82.5 -237.5q0 -115 -62 -200t-174 -125q-64 -23 -177 -23h-326q-14 0 -14 18q0 15 24 23q31 7 44 15q24 18 24 66l2 241l2 243v18q0 10 -3 22t-23 21l-8 -1q-26 0 -37.5 -1t-29.5 -6l-12 4l-3 7
q0 28 96 40zM355 31q111 0 195 96q81 90 81 204q0 157 -94 254t-250 97q-39 0 -51 -22q-8 -16 -8 -59l-2 -124l-6 -304q0 -81 26.5 -111.5t108.5 -30.5z" />
    <glyph glyph-name="E" unicode="E" 
d="M105 334l-1 123l-3 122v33q-3 18 -4 28q-5 21 -50 27q-43 4 -47 25q3 13 13 14q30 0 87 -6l88 -6l102 -1l103 1h103q7 -5 11 -9q2 -17 3 -36.5t1 -61.5v-29q0 -17 -15 -19l-4 1l-4 1q-3 4 -11 29l-10 33q-24 57 -166 57h-22q-54 0 -54 -62v-19l1 -20l-1 -48l-1 -48
q0 -66 15 -75q9 -6 35 -6l27 1h28q45 0 62 13q9 7 15.5 35.5t21.5 48.5l10 4l9 -4l4 -9v-7l-4 -108l-3 -108q0 -15 -3.5 -18.5t-9.5 -3.5q-10 0 -16 13l-3 23q-8 54 -27 69t-76 15h-21q-43 0 -52 -8q-14 -9 -14 -48q0 -70 1 -115.5t5.5 -77.5t28 -48t81.5 -16q63 0 104 34
q24 21 49 67q20 38 34 44l5 -1l8 -6l1 -5q-31 -160 -42 -165l-18 -2l-117 4l-116 5h-93q-29 0 -73 -8l-73 -7q-20 0 -20 22q0 11 33 20l45 7q41 12 41 125l-1 38l-1 39v45z" />
    <glyph glyph-name="F" unicode="F" horiz-adv-x="508" 
d="M113 595q0 41 -25 53l-43 12q-30 11 -30 25l1 4l7 10l5 1h5l111 -3l111 -3l114 1l115 2q24 0 24 -24q0 -12 -1 -36t-1 -36q0 -54 -9 -65l-5 -1q-11 3 -25 36q-12 38 -24 49q-47 44 -157 44q-32 0 -44 -15q-10 -15 -10 -49v-160q0 -38 18 -44q9 -3 28 -3q48 0 69 6
q37 9 51 41l12 30q9 19 22 20q15 0 15 -17l-3 -52l-3 -51l4 -51l4 -51q0 -18 -20 -18l-3 1q-11 6 -20 37q-6 31 -22 45q-28 22 -96 22q-32 0 -43 -6.5t-14 -38.5l-2 -114q0 -115 11 -132q5 -9 22.5 -15.5t43.5 -6.5q49 0 49 -29q0 -13 -24 -13q-13 0 -34 1t-47 4l-80 5
q-12 0 -30 -1t-42 -4l-73 -5q-17 0 -25 15v4q0 22 35 22q44 0 49 5q16 7 19 39q0 18 2.5 119t2.5 163l3 114z" />
    <glyph glyph-name="G" unicode="G" horiz-adv-x="803" 
d="M451 721q47 0 118 -10.5t87 -32.5q6 -8 12 -58l5 -64q0 -6 -7 -12q-4 -2 -12 -2q-9 3 -30.5 46.5t-52.5 66.5q-47 36 -125 36q-134 0 -214 -102q-70 -93 -70 -232q0 -128 76 -229q83 -110 207 -110q102 0 127 64q12 32 12 153q0 36 -14 50q-12 14 -50 14h-21l-20 -1
q-38 0 -38 22q0 8 15 14l21 1h23l22 -1q26 0 89.5 2.5t87.5 2.5l88 4q20 0 23 -16q0 -9 -15 -18h-26q-14 -3 -31.5 -5.5t-26.5 -23.5q-1 -3 -4 -17t-3 -30l-4 -156q-6 -48 -116 -76q-82 -19 -154 -19q-178 0 -288 88q-120 96 -120 269q0 179 127 284q118 98 302 98z" />
    <glyph glyph-name="H" unicode="H" horiz-adv-x="803" 
d="M-11 15q6 14 33 20q18 0 29.5 3t18.5 8q12 8 19.5 23.5t7.5 38.5l1 209q0 12 2 61t2 86l4 144q0 38 -22 50l-57 11q-15 9 -15 17l1 3q6 13 24 13l67 -4l67 -4l63 4l63 4q22 0 22 -18q0 -12 -29.5 -15t-38.5 -8q-24 -10 -27 -45l-2 -101l1 -49v-50q0 -39 30 -39h190
q84 0 98 6q19 10 19 149v42l-1 42q0 30 -20 41q-4 3 -18 5t-30 4t-24 13l-1 5q0 17 30 17l57 -4l57 -3l73 3l71 4q25 0 25 -18q0 -12 -25 -16l-47 -8q-25 -9 -27 -30t-2.5 -35.5t-0.5 -27.5v-27l1 -129v-188l-3 -63l-2 -63q0 -32 21 -47q8 -5 41 -12q24 -4 31 -19l-2 -8
q-7 -9 -14 -10l-69 4l-69 4q-11 0 -31 -1t-45 -4l-77 -4q-17 0 -20 17l1 7q8 6 34 12l39 6q43 9 43 86v23l-1 22l1 31v31q0 92 -15 101l-10 3h-242q-46 0 -56.5 -12.5t-10.5 -59.5l4 -152q0 -46 8.5 -58t48.5 -21l29 -6q5 -1 8 -9v-10q-5 -9 -18 -11l-75 4l-74 5
q-11 0 -30.5 -1t-44.5 -4l-74 -5q-12 0 -15 17z" />
    <glyph glyph-name="I" unicode="I" horiz-adv-x="338" 
d="M-6 19q3 15 45 20q43 0 57 25.5t14 332.5v108l1 79q0 46 -12 63q-16 19 -63 19q-12 5 -12 16q0 17 19 17l70 -3l69 -3l67 3l66 3q16 0 17 -14q0 -15 -45 -21t-55 -26q-4 -8 -4 -78l1 -116l2 -116l-2 -112l-2 -113q0 -41 25 -56l47 -11q25 -5 25 -26l-4 -7q-5 -6 -21 -6
q-20 0 -38 3t-35.5 6t-32 5t-28.5 2q-27 0 -73 -6.5t-70 -6.5h-12l-7 3z" />
    <glyph glyph-name="J" unicode="J" horiz-adv-x="276" 
d="M-120 -155q33 0 59 -32.5t43 -34.5q24 0 47 32q51 72 63 189q2 20 4 95.5t2 107.5l1 66l3 280q0 84 -7.5 99t-27.5 18h-32q-37 0 -37 26q7 9 22 11l56 -3l55 -3l67 3l69 3q30 0 30 -18l-2 -9q-7 -8 -34 -11q-23 0 -34 -15q-4 -8 -4 -104l2 -175l2 -176q0 -142 -25 -217
q-30 -96 -122 -180.5t-180 -84.5q-86 0 -86 71q0 23 21 44q20 18 45 18z" />
    <glyph glyph-name="K" unicode="K" horiz-adv-x="782" 
d="M99 252l4 178l4 176q0 37 -25 50q-5 2 -37.5 6t-32.5 21t31 17l58 -3l59 -2l75 4l74 4q13 0 13 -17q0 -15 -26 -19l-38 -1q-37 0 -37 -58l2 -228q0 -9 5 -10q8 0 127 119t137 143q6 9 6 16l-2 4l-5 4l-49 6q-34 6 -34 25q0 14 29 14l54 -3l55 -2l83 3l82 3q11 0 14 -15
l-1 -8q-6 -9 -56 -13q-17 0 -33 -3.5t-26 -8.5t-24.5 -14t-30.5 -22q-195 -152 -195 -179q0 -14 154 -175q131 -137 185 -188q36 -33 84 -42q10 -4 11 -19q0 -16 -19 -16l-66 4l-66 4q-14 0 -35.5 -1t-49.5 -4l-84 -4q-22 0 -22 19q0 14 37.5 20t43.5 11l1 7
q-23 38 -141 157q-124 124 -147 124q-18 0 -18 -32v-97l1 -51v-51q0 -49 33 -60l39 -7q25 -6 25 -23q0 -15 -23 -15q-22 0 -68.5 6t-71.5 6q-31 0 -98 -10l-50 -7q-18 0 -18 16t41 26q45 9 57 33q8 18 8 74l-2 54z" />
    <glyph glyph-name="L" unicode="L" horiz-adv-x="571" 
d="M104 246l3 175l3 175q0 39 -20 53q-11 7 -40 10t-37 11q-3 4 -5 11l1 4v4q6 11 23 11l44 -3l43 -2l100 4l100 4h12q9 -6 10 -22q-1 -3 -2.5 -5t-8.5 -9q-32 -3 -66 -14.5t-34 -105.5l1 -182l2 -182l-1 -42q0 -63 13 -80.5t78 -17.5q69 0 118 31q26 17 58 60q26 35 39 39
l6 -1l8 -9v-4l-15 -75q-13 -70 -16 -74q-3 -11 -24 -11l-117 3l-117 4h-77l-77 -1l-40 -3l-40 -3q-24 0 -30 13v7q0 15 22 19l44 6q25 6 31.5 30.5t8 41t1.5 45.5l-1 43z" />
    <glyph glyph-name="M" unicode="M" horiz-adv-x="910" 
d="M-14 15q3 20 27 24q35 4 46 9q24 15 31 62q3 25 6.5 59.5t3.5 62.5l6 122q0 20 12 128q4 39 6 69.5t2 58.5q0 32 -36 44l-64 11q-17 10 -19 18q0 10 8 15l12 2l21 -1l22 -2l78 -2l39 2l39 3q6 0 17 -9q36 -72 81 -176l79 -177q13 -32 43 -91l7 -5q16 15 106 254
q14 43 41 107q12 30 42 87q10 13 65 13l40 -2l42 -1l48 2l48 3q16 0 16 -19q0 -17 -33 -22q-25 0 -40.5 -1.5t-21.5 -4.5q-35 -11 -35 -48l-1 -30l1 -213l2 -213q0 -83 29 -98l51 -15q37 -10 40 -26q-3 -16 -29 -16l-42 4l-41 5l-41 1h-41q-21 0 -66.5 -6t-66.5 -6
q-15 0 -15 21l1 3v4l70 28q31 19 31 64l-2 120l-1 120v185q0 13 -5 18l-4 1q-12 -9 -87 -193q-21 -51 -54 -136q-23 -58 -32 -84l-18 -58q-12 -34 -24 -54q-4 -8 -10 -11h-5l-5 1l-25 55l-155 343l-57 129l-7 3l-3 -2l-2 -2l1 -51l-3 -102l-2 -102v-73l-1 -73q0 -89 58 -104
q19 0 42 -5q27 -4 29 -21q0 -17 -24 -17l-64 3l-60 3q-10 0 -27 -1t-40 -4l-68 -5q-9 0 -12 15z" />
    <glyph glyph-name="N" unicode="N" horiz-adv-x="846" 
d="M-14 682q5 12 22 12l52 -2l54 -2l56 3l55 3q12 0 30 -18l25 -28l180 -212l170 -191q8 -7 18.5 -18.5t23.5 -28.5l8 -6q9 6 9 30v272q0 135 -19 153q-6 6 -21.5 9.5t-43.5 3.5q-46 0 -46 23q0 18 53 18l35 -2l34 -2l69 3l69 4q9 0 15 -15q-1 -8 -7 -14l-48 -13
q-24 -6 -33 -34l-6 -49q0 -71 -2 -179.5t-3 -213t-1 -193.5q0 -20 -16 -26l-12 7l-54 56q-61 64 -142 153q-70 76 -178 196l-179 200q-3 -8 -3 -14v-66q0 -287 10 -397q0 -38 39 -54l64 -14q34 -5 34 -23q0 -5 -7 -10.5t-24 -5.5l-81 3l-81 2l-49 -2l-50 -3q-13 3 -14 17
q0 18 44 24t54.5 20t10.5 87l-2 51l-1 52l4 170l4 169q0 59 -44 66l-44 4q-31 4 -32 19z" />
    <glyph glyph-name="O" unicode="O" horiz-adv-x="846" 
d="M402 722q112 0 196 -37.5t140.5 -132.5t56.5 -195q0 -168 -115 -274t-287 -106q-144 0 -258 104t-114 247q0 171 105.5 282.5t275.5 111.5zM403 19q44 0 63 5q102 24 151 145q38 94 38 218q0 114 -68 203q-74 97 -184 97q-127 0 -191 -104q-52 -87 -52 -223
q0 -127 57 -225q67 -116 186 -116z" />
    <glyph glyph-name="P" unicode="P" horiz-adv-x="592" 
d="M17 703h5q12 0 31.5 -1t45.5 -4l78 -4l75 2l76 3q109 0 178 -44q80 -53 80 -156q0 -88 -59.5 -147.5t-148.5 -59.5q-35 0 -97 21l-45 15q-6 0 -6 -33l-1 -93l-2 -95q0 -47 27 -64q9 -5 51 -10q28 0 28 -20q0 -16 -27 -16q-10 0 -26.5 1t-39.5 4q-42 6 -65 6q-10 0 -27 -1
t-40 -4l-67 -5q-18 0 -25 7l-2 8l2 9q9 9 35 15q25 4 35 13q17 15 17 54v22l3 247l4 249q0 28 -17 38l-38 5q-25 0 -40 10q-5 4 -7 15q0 8 9 13zM304 340q157 0 157 173q0 63 -46.5 109t-110.5 46q-52 0 -67 -43q-7 -21 -7 -87v-66l-1 -67q0 -42 17 -55q13 -10 58 -10z" />
    <glyph glyph-name="Q" unicode="Q" horiz-adv-x="803" 
d="M400 720q164 0 270 -99.5t106 -262.5q0 -140 -84 -238q-77 -90 -220 -128l-1 -6l1 -3v-4q12 -9 27 -30l25 -31q45 -46 113 -79.5t132 -33.5l27 3l28 2q10 0 17 -10q0 -20 -67 -32q-23 -3 -43.5 -5t-39.5 -2q-114 0 -229 56q-140 66 -140 166q-2 6 -4 8
q-127 28 -211.5 126.5t-84.5 228.5q0 168 105 271t273 103zM402 20q116 0 184 123q55 102 55 229q0 122 -60 214q-69 105 -186 105q-112 0 -178 -100q-55 -87 -55 -206q0 -142 50 -239q63 -126 190 -126z" />
    <glyph glyph-name="R" unicode="R" horiz-adv-x="698" 
d="M105 579v35q0 46 -49 46h-22q-38 0 -38 20l3 12q9 7 58 7l41 -1l40 -1l108 4l108 5q94 0 151 -39q64 -46 64 -137q0 -50 -40 -94q-34 -39 -86 -58l-6 -5l-2 -3q0 -14 69 -128.5t87 -139.5q33 -48 88 -63l20 -5q12 -5 12 -15q0 -11 -16 -18h-84l-83 -1q-35 0 -48 22
q-21 36 -74 145q-46 99 -76 144q-20 33 -64 33q-39 0 -39 -47l1 -17v-17q0 -158 7 -196q3 -17 40 -29l54 -12l6 -4l2 -5l2 -6q0 -5 -3 -8l-5 -8l-13 -1q-23 0 -72 6t-74 6q-13 0 -34.5 -1t-49.5 -4l-84 -5q-15 0 -15 20q0 12 28 18l39 6q37 7 43 73q0 35 1 90.5t2 108.5
l1 134zM290 378q71 0 115 36t44 106q0 75 -49 115q-45 36 -122 36q-18 0 -35 -9q-21 -14 -21 -161l-1 -33l-1 -33q0 -36 19 -48q14 -9 51 -9z" />
    <glyph glyph-name="S" unicode="S" horiz-adv-x="508" 
d="M52 202l7 -1q8 0 23 -37l15 -48q21 -43 69.5 -69.5t98.5 -26.5q57 0 94 34.5t37 91.5q0 66 -89 118l-166 92q-89 66 -89 167q0 93 65 145q60 48 154 48q38 0 82.5 -9t59 -26.5t14.5 -56.5v-16v-12q0 -41 -4 -49q-3 -3 -10 -5q-8 0 -14 12q-7 52 -47.5 88t-95.5 36
q-52 0 -89 -29t-37 -80q0 -63 90 -108q149 -73 166 -87q90 -69 90 -194q0 -93 -77 -149q-68 -50 -164 -50q-32 0 -59.5 3t-56.5 11q-81 21 -81 64v24l-1 24q0 83 15 95z" />
    <glyph glyph-name="T" unicode="T" horiz-adv-x="698" 
d="M64 733q9 0 24 -21t41 -21l98 -2l97 -1h275q39 0 54.5 22.5t23.5 23.5l3 -1q9 -3 9 -15l-7 -115l-3 -48q-1 -13 -12 -18q-11 1 -20 26l-10 35q-18 55 -149 55q-47 0 -59 -3q-25 -8 -25 -45l1 -75l1 -75v-246l3 -117q0 -33 32 -42l57 -7q29 -3 29 -23q0 -16 -24 -16l-57 2
l-57 2q-32 0 -100 -6l-100 -5q-18 0 -19 16v7q2 14 38 19t39 7q36 17 36 88l1 235l1 235q0 28 -10 38t-38 10q-86 0 -111 -8q-43 -13 -85 -69q-10 -17 -34 -45l-6 -2q-9 3 -11 18q2 7 4.5 16t9.5 30q15 49 17 51l15 52q12 38 28 38z" />
    <glyph glyph-name="U" unicode="U" horiz-adv-x="761" 
d="M3 701l18 2l17 2l53 -2l52 -2l70 2l70 2q30 0 36 -20l-1 -6l-3 -6q-4 -5 -34 -8q-15 0 -26.5 -2t-16.5 -4q-26 -10 -26 -271v-53l-1 -53q0 -126 27 -182q39 -81 155 -81q150 0 200 75q38 59 38 218l2 279q0 51 -28 63l-47 13q-36 11 -36 24q0 15 29 15l51 -2l52 -2l50 2
l49 2q11 0 17 -5l4 -11q-3 -15 -32 -22l-43 -12q-25 -14 -25 -126l3 -222q0 -173 -54 -245q-64 -82 -234 -82q-150 0 -239 68q-41 32 -56 94q-8 38 -8 113l2 129l3 129l1 117q0 24 -21 30l-40 2q-36 0 -39 20q3 13 11 18z" />
    <glyph glyph-name="V" unicode="V" horiz-adv-x="720" 
d="M51 701l46 -2l46 -2l74 3l73 3q21 0 21 -17q0 -10 -13 -20q-14 0 -21.5 -1t-31.5 -5.5t-24 -27.5q0 -19 132 -319l27 -62q23 -48 33 -51q8 4 11 11l6 15l11 25q139 329 139 376q0 21 -42 32q-51 9 -54 12.5t-5 13.5q0 16 19 19q21 -4 47.5 -6t67.5 -2l51 2l51 2
q20 0 20 -17q0 -9 -9 -14.5t-39 -11.5q-17 -3 -34 -24q-21 -27 -58 -114q-12 -32 -23 -60t-27 -66l-123 -295q-18 -50 -46 -110l-7 -4q-9 0 -13 8q-10 16 -50 110q-12 31 -46 114q-38 93 -60 147q-18 44 -76 182l-39 82q-12 20 -53.5 29.5t-41.5 28.5q0 16 61 16z" />
    <glyph glyph-name="W" unicode="W" horiz-adv-x="1036" 
d="M278 691l4 8q6 6 15 6h4l64 -4l63 -3l59 3l58 3q9 0 14 -5l3 -6l2 -5l-6 -11l-38 -7q-25 -4 -26 -19q0 -6 9.5 -32t28.5 -71q38 -88 45 -93l5 -1l7 6q3 27 39 93.5t36 96.5q0 5 -9 16q-14 6 -46 9q-6 4 -8 13q0 13 14 16l111 -5l40 3l40 4q14 0 16 -15q0 -13 -20 -17
l-40 -4q-28 -5 -40.5 -24t-54.5 -103q-23 -46 -37.5 -81t-24.5 -68l116 -250l5 -5l4 -1l3 1l4 3q2 7 11.5 31t32.5 74q144 335 144 399q0 15 -11 21l-2 2l-46 8q-12 6 -12 14q0 15 25 15l51 -3l50 -3l40 3l42 3q18 0 18 -17q0 -11 -17 -14l-36 -6q-22 -7 -35 -32
q-35 -69 -88 -198l-81 -202q-5 -16 -89 -192l-29 -68q-6 -8 -12 -9q-7 0 -15 8q-22 49 -73 145q-17 32 -41 82q-18 37 -30 63l-80 -161q-65 -131 -73 -137l-9 -2q-16 14 -29 44q-5 12 -9 23t-11 25q-70 146 -105 222q-16 34 -89 192q-35 75 -74 162q-12 29 -46 35
q-28 3 -28 20q0 14 17 14l56 -3l56 -2l60 3l60 4q15 0 20 -15l-5 -10l-9 -5l-28 -4q-18 -6 -18 -20q0 -29 63 -166q51 -108 86 -172q18 -33 39 -85l35 -86l8 -5q5 4 6 7q16 23 43 85t42 86q-13 27 -42 89t-62 130q-18 43 -56 113q-13 21 -41.5 24.5t-32.5 19.5z" />
    <glyph glyph-name="X" unicode="X" horiz-adv-x="762" 
d="M-12 689l8 8l8 3l174 -9l68 2l68 3q32 0 32 -18t-46 -25q-46 -5 -46 -22q0 -19 62 -99q49 -65 81 -100q11 0 74 96t63 115q0 14 -46 20q-45 0 -48 25q3 12 18 14l80 -4l82 -4l53 3l52 3h4l4 -1q9 -5 9 -17l-2 -5q-3 -6 -49 -16q-50 -9 -76 -35q-45 -45 -105 -115
q-81 -93 -81 -116q0 -13 98 -147q91 -125 118 -156t53 -40l62 -16q15 -3 15 -15q0 -19 -28 -19l-67 3l-68 4q-14 0 -36.5 -1t-50.5 -4l-88 -5l-20 3q-11 4 -11 16l2 7q7 12 51 17q39 0 39 18q0 11 -69 109q-63 90 -85 113l-5 1q-18 -5 -72.5 -95t-54.5 -115t46.5 -31.5
t46.5 -27.5l-1 -6q-12 -12 -39 -12q-10 0 -27 1t-41 4l-68 5l-60 -4l-60 -3q-20 0 -20 18q0 10 51 27q58 16 70 27q16 15 97 118q41 46 102 128l1 5v4q0 16 -101.5 152.5t-126.5 157.5q-12 11 -51.5 21.5t-43.5 26.5z" />
    <glyph glyph-name="Y" unicode="Y" horiz-adv-x="719" 
d="M-11 686q3 15 22 15l71 -4l73 -4l63 2l64 2h24q13 -6 14 -17q0 -14 -42 -19q-20 0 -30 -5t-11 -14q0 -17 60 -106l77 -109l28 -37q5 -6 16 -8l8 3l4 1q29 30 101 131q78 110 78 131q0 16 -44 16q-43 0 -43 22q0 14 39 14l30 -2l30 -1l63 3l63 4q23 0 29 -16
q-1 -6 -38 -22q-40 -15 -51 -28q-48 -48 -203 -235l-3 -1q-31 -37 -38.5 -61.5t-7.5 -79.5l-2 -71q0 -120 14 -134l6 -2q5 -5 60 -11q43 0 43 -23q-4 -16 -25 -16l-82 3l-80 3q-60 0 -152 -12q-18 3 -20 18l1 4q6 11 39 19l45 12q29 15 29 92q0 18 -2.5 65.5t-2.5 67.5
q0 24 -21 58q-52 84 -123 186l-39 56q-23 33 -44 52l-25 23q-12 12 -29 15l-18 1l-16 9z" />
    <glyph glyph-name="Z" unicode="Z" horiz-adv-x="698" 
d="M456 638l1 6l-1 4l-3 4l-27 6q-153 0 -255 -15q-43 -6 -74 -34q-14 -14 -37 -49q-15 -24 -26 -24q-7 0 -13 12l31 100q29 86 32 88l10 5l10 -6q10 -15 10 -31q0 -11 9 -16q9 -3 48 -3l126 3l125 3h185l15 -1l7 -10q-3 -13 -89 -127l-185 -246q-154 -210 -154 -232t23 -32
q13 -5 56 -7t116 -2q60 0 92 6q53 9 83 36q11 11 33 62q19 44 31 50q12 -3 13 -11l-3 -60l-2 -61q0 -34 -3 -42q-6 -14 -36 -14l-55 1l-56 2h-288l-91 -4l-91 -5q-10 0 -17 7l-1 7q6 25 83 133q85 122 230 310l108 140z" />
    <glyph glyph-name="bracketleft" unicode="[" horiz-adv-x="381" 
d="M120 817l204 1l20 -1q2 -2 7 -21q0 -13 -23 -13l-30 1l-29 1q-63 0 -73 -11q-1 -6 -3.5 -43t-2.5 -65l-2 -233l1 -233l2 -233l-1 -45l-1 -45q0 -33 7 -45.5t39 -12.5l43 1h44l20 -2l4 -3l4 -13q0 -17 -15 -19h-219q-15 0 -15 22l1 207l1 208l-2 270l2 241l-1 20l-1 19
q0 37 19 47z" />
    <glyph glyph-name="backslash" unicode="\" horiz-adv-x="282" 
d="M-17 747h67l249 -766h-68z" />
    <glyph glyph-name="bracketright" unicode="]" horiz-adv-x="381" 
d="M34 815q10 4 123 4h57l53 -2l6 -5q6 -14 6 -97l-2 -126l-2 -126v-130l2 -130l2 -131l-2 -118l-1 -119q0 -31 -3 -39q-6 -14 -34 -14l-35 1l-34 1l-60 -1l-61 -1q-16 0 -20 22q6 16 28 16l17 -1l16 -1l54 -1q31 0 38 11q8 16 8 307l1 343l1 147q0 111 -7 143
q-11 16 -57 16l-30 -2l-30 -1q-30 0 -38 8l-1 10q0 7 5 16z" />
    <glyph glyph-name="asciicircum" unicode="^" horiz-adv-x="0" 
d="M-123 782q103 103 127 103q16 0 66 -44q47 -41 60 -59l1 -3v-4q0 -5 -9 -11l-4 -1q-9 0 -55 26l-65 33q-11 -4 -22.5 -10.5t-32.5 -21.5q-17 -11 -31 -18.5t-26 -10.5l-6 1l-3 2l-3 6z" />
    <glyph glyph-name="underscore" unicode="_" horiz-adv-x="563" 
d="M0 -127v51h563v-51h-563z" />
    <glyph glyph-name="grave" unicode="`" horiz-adv-x="0" 
d="M-139 643q0 12 12.5 27.5t24.5 15.5q18 0 89 -68l92 -87l3 -10q0 -12 -13 -12q-19 0 -110 56t-98 73v5z" />
    <glyph glyph-name="a" unicode="a" horiz-adv-x="423" 
d="M229 457q126 0 126 -85q0 -45 -7 -125l-7 -125q0 -64 44 -64q22 0 46 23l8 3l7 -3l4 -8l-1 -4l-1 -5q-6 -30 -45 -51q-36 -21 -70 -21q-37 0 -52 19l-28 36l-5 1l-7 -3q-17 -21 -63 -40t-79 -19q-85 0 -85 72q0 63 61 109q33 24 114 55q63 24 65.5 36.5t3.5 26.5t1 44
q0 47 -9 67q-15 29 -57 29q-47 0 -73 -33l-36 -63q-21 -33 -61 -33q-20 0 -20 23q0 16 20 45q65 93 206 93zM174 40q82 0 82 142q0 30 -17 30q-9 0 -29 -8q-36 -13 -65 -42q-32 -34 -32 -69q0 -53 61 -53z" />
    <glyph glyph-name="b" unicode="b" horiz-adv-x="530" 
d="M-4 673q4 4 69.5 36.5t74.5 32.5q8 0 11 -27l-1 -33l-2 -116l-1 -114q0 -20 4 -33q3 -3 8 -3q7 0 32 11l33 16q42 17 80 17q85 0 141 -71q26 -33 39 -70t13 -82q0 -102 -69.5 -177t-172.5 -75q-45 0 -123 30q-24 1 -43.5 -26.5t-27.5 -27.5q-6 0 -10.5 5t-6.5 19l2 40
l3 41q0 97 1 195t2 189v147q0 26 -4.5 35t-28.5 14.5t-24 21.5zM265 14q68 0 102 70q27 54 27 129q0 71 -50.5 127.5t-122.5 56.5q-45 0 -58 -13q-6 -6 -10.5 -21.5t-4.5 -37.5l-2 -151q0 -80 19 -114q26 -46 100 -46z" />
    <glyph glyph-name="c" unicode="c" horiz-adv-x="423" 
d="M282 469q50 0 90 -13q58 -18 58 -55q0 -51 -39 -51q-24 0 -57.5 44.5t-66.5 44.5q-66 0 -106 -73q-32 -61 -32 -134q0 -77 43.5 -132t120.5 -55q19 0 51 12q37 15 50 18q14 -3 17 -17q0 -32 -77 -56q-62 -17 -106 -17q-88 0 -148.5 66.5t-60.5 156.5q0 108 77 184
q39 38 85.5 57.5t100.5 19.5z" />
    <glyph glyph-name="d" unicode="d" horiz-adv-x="530" 
d="M249 457q11 0 18.5 -1t27.5 -7q32 -6 48 -6l6 1q17 6 17 67v140q0 27 -37 31q-36 0 -36 21q0 19 39 19l52 -1l41 3q9 1 13.5 2t6.5 2q17 0 18 -10l-1 -10l-4 -137l-4 -276v-220q0 -35 24 -35l17 2l19 3l3 -1l8 -4l1 -9l-1 -5l-4 -4q-6 -3 -23.5 -8.5t-50.5 -15.5
q-58 -17 -71 -19q-13 0 -13 21l1 10v10l-2 4q-3 4 -7 3l-53 -26q-31 -14 -57 -14q-102 0 -163.5 61t-61.5 164q0 100 65 172.5t164 72.5zM159 89q72 -55 114 -55q53 0 72 23q16 22 16 75l1 180q0 114 -112 114q-66 0 -102 -63q-30 -51 -30 -124q0 -86 41 -150z" />
    <glyph glyph-name="e" unicode="e" horiz-adv-x="445" 
d="M250 459q56 0 112 -39q60 -43 60 -98q0 -20 -7 -30l-26 -3l-177 -2q-54 0 -81 -3q-13 -8 -13 -29q0 -79 35 -134q42 -66 116 -66q35 0 73 18l66 35q16 0 16 -14q0 -7 -25 -33q-75 -78 -167 -78q-94 0 -153 66t-59 159q0 101 65 176t165 75zM133 325q6 -9 14 -10h25
q156 0 156 63q0 27 -20.5 42t-49.5 15q-41 0 -83.5 -30.5t-42.5 -70.5z" />
    <glyph glyph-name="f" unicode="f" horiz-adv-x="276" 
d="M11 15l5 8q13 4 25.5 8.5t29 12.5t16.5 55v277q0 20 -20 20l-21 -4l-21 -3l-5 2q-5 5 -7 15q0 14 22 19t28 10q18 11 26 46l14 76q5 20 13 38t19 31q94 116 213 116q66 0 66 -33q0 -16 -17 -39q-15 -24 -31 -24q-9 0 -38 23.5t-54 23.5q-96 0 -96 -208q0 -29 10 -38
q11 -7 42 -7l23 2l26 2q27 0 27 -23q0 -27 -28 -27l-37 2l-38 2q-16 0 -21 -24l-1 -36l-2 -120l-2 -118q0 -51 27 -62l34 -6q23 -6 26 -17v-5q-8 -9 -13 -12q-25 5 -55.5 8t-63.5 3q-18 0 -53.5 -6t-52.5 -6q-9 0 -15 12v6z" />
    <glyph glyph-name="g" unicode="g" horiz-adv-x="508" 
d="M481 361q-45 0 -54 -16q-3 -6 -3 -58q0 -88 -73 -128q-39 -20 -141 -35q-79 -10 -88 -31l-1 -6q0 -34 95 -34q62 0 107 -4.5t69 -11.5q95 -27 95 -117q0 -96 -113 -151q-91 -44 -198 -44q-68 0 -124 24q-71 30 -71 91q0 33 33 63q9 7 24.5 17t37.5 22q32 18 34 24l-3 3
l-55 51q-35 37 -35 63q0 12 13 18l59 21q47 16 49 24q-3 5 -22 18q-73 50 -73 121q0 83 65 130q57 42 144 42q40 0 95 -24.5t60 -24.5l36 3l36 3q33 0 42 -10q3 -5 3 -10q0 -6 -1 -9v-13l-1 -13zM238 151q44 0 68 47q17 37 17 88q0 150 -83 150q-48 0 -70 -52
q-17 -40 -17 -94q0 -139 85 -139zM218 -239q65 0 117 26q65 32 65 90q0 49 -75 69q-22 5 -51 7t-63 2l-27 -1q-41 0 -74 -27.5t-33 -69.5q0 -49 48 -75q38 -21 93 -21z" />
    <glyph glyph-name="h" unicode="h" 
d="M2 22l41 14q23 7 23 44l10 537q0 18 -19 30l-35 13l-3 5v4l2 6q1 4 67.5 34t77.5 30l8 -4l2 -4v-7q0 -35 -2.5 -115.5t-2.5 -109.5l-4 -107l1 -3l3 -5l4 -3l10 4q62 70 144 70q40 0 81 -19.5t56 -57.5q10 -28 10 -86l-3 -80l-2 -80v-38t2.5 -36.5t32.5 -27.5
q30 -6 33 -17q-3 -14 -15 -16l-53 4l-53 4l-47 -3l-45 -2q-14 0 -23 10l-2 6q0 11 20 15l30 4q23 9 23 54l1 89l2 88q0 70 -15 97q-21 35 -88 35q-70 0 -94 -62q-13 -39 -13 -122l-1 -60l-1 -60q0 -48 14 -54l41 -7q27 -3 34 -20q-2 -14 -26 -14l-60 4l-61 4q-20 0 -90 -10
q-15 2 -18 16z" />
    <glyph glyph-name="i" unicode="i" horiz-adv-x="233" 
d="M77 674q0 13 11 31l24 16q10 5 30 5q27 0 42 -18.5t15 -45.5q0 -24 -17 -40q-8 -8 -17 -12t-23 -4q-30 0 -47.5 18.5t-17.5 49.5zM0 23l50 17q17 7 23 44l4 114v119q0 36 -29 46q-33 9 -37 23q0 9 10 15l19 7q25 6 76 30q15 13 54 38l9 -3l3 -3l2 -7l-12 -189v-113v-21
l-1 -22q0 -71 27 -82q13 -2 23 -6q4 -1 19 -8l3 -4l1 -4l1 -5q-5 -6 -19 -11l-102 10l-54 -4l-52 -3q-18 0 -22 11z" />
    <glyph glyph-name="j" unicode="j" horiz-adv-x="212" 
d="M55 676q0 20 19 36t39 16q26 0 45 -16t19 -40q0 -30 -19.5 -46t-50.5 -16q-22 0 -37 20.5t-15 45.5zM4 385q0 12 33 24q45 15 90 42l30 19l8 2q6 0 9 -15l-3 -30q0 -9 -4 -126.5t-4 -169.5l1 -45v-45q0 -86 -15 -140q-18 -70 -73 -120q-15 -14 -48 -35t-51 -23
q-16 0 -16 17l27 30q32 34 46 61q11 23 20 71q13 98 13 253v89l-1 88q0 24 -16 33l-30 6q-15 3 -16 14z" />
    <glyph glyph-name="k" unicode="k" horiz-adv-x="530" 
d="M6 23l37 18q20 9 24 26l3 21l2 249l2 250q0 33 -6 42.5t-37 24.5q-17 6 -17 17q0 7 5 13l123 51l22 4q11 0 11 -19q0 -39 -1 -64q-5 -124 -5 -152l-5 -216q0 -21 14 -22q22 0 94 54t72 75q0 8 -17 17l-24 10l-1 9l1 4l1 4q6 6 16 4l34 -2l36 -2q42 0 111 7l10 -4l3 -5v-4
l-1 -5l-4 -5l-45 -16q-67 -21 -151 -89q-24 -19 -26 -34q0 -13 86 -108l105 -115q4 -5 35 -21q24 -11 26 -21q0 -16 -14 -17q-8 0 -21 1t-30 4l-51 5q-19 0 -60 -6l-60 -5l-8 2l-5 9v5l3 6q5 5 24 10q18 3 25 10l4 9q0 16 -75 100t-92 85q-6 -3 -9.5 -10t-3.5 -39v-84
q0 -31 5 -43t27 -21l26 -9q9 -5 9 -14q0 -7 -15 -16l-4 1l-42 3l-42 3q-17 0 -56 -6l-54 -5q-13 0 -19 11v5l1 3z" />
    <glyph glyph-name="l" unicode="l" horiz-adv-x="233" 
d="M21 651v9q0 5 44 23l52 27q35 17 51 19l6 -5l2 -20l-3 -111l-2 -111v-118q0 -81 1.5 -151t2.5 -111q0 -46 20 -61q8 -5 33 -9t31 -20q-6 -14 -26 -14l-43 2l-42 3h-28q-25 -3 -40 -4l-69 -5q-15 0 -19 8l-2 10q4 12 27.5 16t32.5 9q17 10 22 42q6 54 6 170l-1 154l-1 154
v12q0 42 -4 51t-19 12.5t-32 18.5z" />
    <glyph glyph-name="m" unicode="m" horiz-adv-x="825" 
d="M-12 20l7 3l7 -1q41 0 55 42q3 13 5 37t2 42l4 114v55q0 38 -43 47q-6 6 -8 15q0 9 15 17l23 8q37 13 89 57q6 6 25 13q9 -5 9 -15q-8 -22 -8 -59l3 -5l7 -3l28 18q24 19 49 32q33 18 68 18q40 0 65 -16q13 -7 31 -31q15 -18 27 -21q12 2 33 21q12 11 21 18t21 14
q32 16 69 16q80 0 112.5 -37.5t32.5 -121.5l-1 -72l-1 -72q0 -82 7 -106q3 -14 32 -19t31 -7l6 -8q-3 -14 -24 -14l-6 -1q-4 0 -15 1t-28 4l-44 3l-55 -4l-56 -3q-19 0 -19 16l5 9q10 -1 26 5q48 12 48 55l-1 27l-1 27l2 64l3 66q0 70 -13 93q-20 37 -82 37q-71 0 -92 -60
q-3 -10 -6 -41t-3 -80l-3 -57l-2 -57q0 -49 17 -60l57 -21l5 -8v-5l-1 -3q-5 -6 -19 -6l-52 3l-51 4l-59 -2l-59 -2l-3 1q-4 2 -8 9q0 10 21 15q31 5 40 11q21 12 21 47v117l-1 83q0 61 -10 78q-15 30 -69 30q-70 0 -94 -46q-7 -14 -12.5 -42.5t-5.5 -67.5l-4 -135
q0 -23 1 -32.5t7 -19.5q12 -19 45 -27q8 0 21 -7l1 -5q0 -13 -18 -13l-54 4l-53 4l-54 -4l-54 -4q-10 0 -15 9v4z" />
    <glyph glyph-name="n" unicode="n" 
d="M72 119l-1 63l-1 65l1 24v23q0 35 -24 47t-24 22q0 6 26 20.5t52 37.5l44 42q9 9 17 9l6 -5l2 -7q-4 -34 -6.5 -48.5t-3.5 -21.5l4 -4l36 23q66 46 134 46q75 0 110 -42q29 -37 29 -117l-3 -105l-2 -105q0 -38 18 -47l50 -15l6 -8q-1 -7 -5 -11l-13 -3l-46 3l-45 3
l-54 -3l-53 -2q-22 0 -22 13l1 5l2 3q10 2 18 5t24 12q30 18 30 129l-1 38l-1 38q0 76 -12 105q-20 47 -87 47q-80 0 -102 -61q-12 -30 -12 -128q0 -148 20 -165q9 -6 36 -15q27 -6 30 -10l2 -9l-2 -4q-6 -6 -15 -6l-66 3l-66 3l-36 -3l-36 -2q-14 0 -16 12q0 9 16 16l24 10
q17 12 17 80z" />
    <glyph glyph-name="o" unicode="o" 
d="M275 467q103 0 176 -70t73 -173q0 -107 -82 -176q-78 -64 -187 -64q-94 0 -166 73.5t-72 169.5q0 100 79 170t179 70zM270 9q69 0 110 77q34 65 34 139q0 83 -32 143q-41 73 -117 73q-71 0 -109 -69q-28 -56 -28 -135q0 -76 34 -144q41 -84 108 -84z" />
    <glyph glyph-name="p" unicode="p" 
d="M-37 -261q7 10 47 10t47 44l4 94v54l-1 55l3 167l3 166q0 36 -16 42l-27 6q-18 5 -18 17q1 3 3 6t6 8q15 11 53 26.5t57 28.5l36 27l3 1q10 0 11 -16l-2 -24l-2 -23l1 -4v-4l5 -5l5 -1l70 27q22 9 38 12.5t35 3.5q91 0 147 -71q52 -66 52 -159q0 -98 -72.5 -170.5
t-170.5 -72.5q-16 0 -48 9q-17 4 -26.5 6t-20.5 2l-9 -2l-4 -4q-13 -16 -13 -183q0 -39 7.5 -48.5t50.5 -18.5q36 -6 37 -20v-4l-1 -5q-6 -9 -26 -9l-51 3l-51 2l-52 -1l-51 -1q-61 0 -61 21zM154 174q0 -77 18 -112q26 -46 99 -46q74 0 111 62q30 51 30 131
q0 87 -45.5 138.5t-133.5 51.5q-80 0 -80 -120l1 -33v-33v-39z" />
    <glyph glyph-name="q" unicode="q" horiz-adv-x="530" 
d="M284 460q32 0 97 -24q41 -15 50 -15q8 0 25.5 27.5t28.5 33.5l7 -1l6 -7l2 -4l-10 -85l-4 -201q0 -22 -2.5 -93t-2.5 -107l-5 -199q0 -25 32.5 -36t38.5 -17l2 -7q-3 -9 -13 -19l-39 2l-39 1h-77l-32 -1l-33 -2q-18 0 -18 15t17 19l36 6q19 9 26 38q3 18 5 43.5t2 61.5
l-1 60l-1 60l-5 4l-5 1q-14 0 -59.5 -15t-70.5 -15q-95 0 -159 68t-64 162q0 116 76 183q72 63 189 63zM322 33q46 0 59 26q3 9 4.5 26.5t1.5 40.5l1 193q0 47 -27.5 79t-74.5 32q-73 0 -115 -63q-35 -53 -35 -132q0 -87 50 -144.5t136 -57.5z" />
    <glyph glyph-name="r" unicode="r" horiz-adv-x="338" 
d="M74 300q0 34 -7 42q-6 10 -37 30q-5 4 -5 14q7 6 13.5 10.5t22.5 13.5l44 23l29 25l27 20q9 0 13 -10l1 -3l-3 -30l-2 -29v-6l2 -4l4 -3q8 4 13 7q14 8 36 24q43 32 71 32q27 0 47.5 -18t20.5 -46q0 -59 -54 -59q-21 0 -49.5 22.5t-44.5 22.5q-29 0 -41 -49
q-2 -11 -4 -30t-2 -44l-3 -64l-2 -65q0 -48 7 -63q12 -26 52 -30l37 -2l12 -5l2 -9q0 -17 -29 -17l-57 4l-56 4q-21 0 -63 -6l-63 -5q-7 7 -11 13v4q0 7 34 16.5t37.5 41t5.5 88.5t2 140z" />
    <glyph glyph-name="s" unicode="s" horiz-adv-x="359" 
d="M27 83q0 28 11 40l5 1l7 -2q3 -5 7.5 -16t9.5 -23q12 -36 31 -52t56 -16q36 0 64 21t28 58q0 38 -57 76l-104 61q-57 39 -57 92q0 65 58 105q51 36 120 36q17 0 26 -1t29 -7q39 -9 42 -24l4 -40v-27q0 -18 -2 -22l-9 -5l-5 1l-10 10l-10 26q-29 60 -89 60q-27 0 -48 -15
q-24 -15 -24 -42q0 -42 59 -77l108 -61q59 -44 59 -110t-60 -110q-54 -37 -123 -37q-118 0 -125 56z" />
    <glyph glyph-name="t" unicode="t" horiz-adv-x="297" 
d="M51 430l38 20q12 6 46 55q13 18 26 34q4 5 9 11l8 -3l3 -4l-3 -43l1 -41q6 -17 34 -17l44 3l45 3q19 0 19 -21q0 -31 -38 -31l-26 2l-25 2q-34 0 -45 -7q-17 -11 -17 -43l1 -28v-29v-122q0 -59 11 -85q18 -43 67 -43q25 0 52 21l4 1q11 -5 14 -16q-6 -27 -54 -47
q-38 -15 -75 -15q-115 0 -115 127l3 121l4 123q0 18 -7 31q-12 4 -42 4l-9 5l-4 7q0 9 31 25z" />
    <glyph glyph-name="u" unicode="u" horiz-adv-x="530" 
d="M-11 432q0 12 16 12l65 -3l66 -2q18 0 18 -25l-4 -124l-4 -125q0 -60 19.5 -90t79.5 -30q70 0 94 42q9 16 14.5 42t5.5 67l4 114v72q0 27 -39 27q-21 0 -33.5 4t-16.5 10l-1 6q1 5 2 6l4 5l8 3h11l30 -2l30 -2l38 2l41 3q23 0 23 -32q0 -29 -1 -48q-5 -94 -5 -117
q0 -52 -2 -86t-4 -79q0 -23 20 -32q6 -2 14 -3t25 -1q23 0 32 -9v-5l-1 -4l-7 -7q-11 -4 -64 -14q-48 -6 -69 -15l-25 -8q-16 0 -16 25l2 29l3 28l-6 3l-3 -3q-12 -30 -68 -55q-50 -22 -88 -22q-83 0 -115.5 42t-32.5 127l1 114l1 114q0 18 -20 25q-10 0 -16 1t-19 4l-6 6z
" />
    <glyph glyph-name="v" unicode="v" horiz-adv-x="530" 
d="M4 446q68 -6 136 -6l55 2l54 2q7 0 11 -5.5t4 -13.5q-6 -11 -29 -16l-32 -4l-7 -9l-1 -6q0 -15 48.5 -124.5t55.5 -112.5l4 -1l8 4q11 12 51 116t40 120q0 15 -25 21q-33 6 -37 10v8q0 5 6 11l3 1l58 -2l55 -1l57 3q11 -3 11 -16q0 -6 -11 -13q-13 0 -24 -1.5t-20 -5.5
q-16 -8 -30.5 -32t-51.5 -108l-75 -176q-13 -43 -36 -99l-8 -6l-5 -2l-5 2l-44 93l-91 187q-15 36 -52 107q-12 18 -35 28l-44 18l-4 6l-2 7q0 9 12 14z" />
    <glyph glyph-name="w" unicode="w" horiz-adv-x="782" 
d="M-8 444l12 1l81 -3l172 -5q15 0 56 2.5t60 2.5l115 5q23 0 25 -15q-7 -12 -31 -17q-34 -3 -37 -5l-5 -11q6 -28 52 -138.5t61 -118.5q15 3 57 110t42 133q0 23 -16 32q-6 2 -13 3t-25 1l-6 3l-4 6l-1 3q1 14 13 13l38 -2l37 -1l43 2l45 3l6 -1l5 -3l3 -8q-3 -11 -36 -22
q-31 -7 -42 -27l-38 -86l-80 -183l-26 -70q-19 -51 -33 -59q-7 0 -15 7l-119 265l-6 2l-9 -5q-52 -124 -117 -265l-11 -4q-5 0 -11 6q-11 15 -50 104l-93 218l-27 60q-18 30 -50 36.5t-32 16.5q0 5 10 14zM177 382q0 -15 42 -113q39 -91 55 -116l5 -2h4q14 0 45 77.5
t31 101.5q0 39 -27 63t-67 24h-11q-61 0 -77 -28v-7z" />
    <glyph glyph-name="x" unicode="x" horiz-adv-x="508" 
d="M-7 15l11 11q60 12 94 40q17 14 69 77q17 18 38 53q-3 9 -57 86l-67 89q-11 14 -66 34q-16 6 -17 16q0 16 14 15l52 -4l53 -4l58 4l61 4q9 -5 9 -15q0 -11 -24.5 -17.5t-26.5 -18.5q0 -11 33 -56q28 -39 43 -54h4q8 0 41 48t33 61q0 9 -12.5 15t-26.5 6l-5 4q-3 3 -3 12
l1 6q3 4 23 4l35 -1l38 -1l47 2l50 3l6 -1q5 -4 5 -14q0 -9 -13 -13q-65 -16 -89 -34l-67 -69l-24 -26q-14 -17 -16 -31q0 -13 45 -73l60 -75q43 -56 99 -76l6 -6l1 -4l-5 -11l-8 -5q-78 12 -98 12l-58 -4l-57 -3l-6 1l-6 12q0 9 20.5 17.5t20.5 20.5q0 16 -31 57
q-24 33 -45 54l-7 2q-11 -3 -41 -46q-26 -40 -28 -54q0 -16 22 -29q22 -10 25 -19l-2 -5q-6 -9 -18 -9l-35 2l-35 3q-17 0 -55 -6l-55 -5q-7 0 -12 6l-2 8z" />
    <glyph glyph-name="y" unicode="y" horiz-adv-x="465" 
d="M-7 433q3 12 17 13l41 -2l40 -2l68 3l67 3l8 -6l2 -5v-5q0 -5 -6 -11l-32 -8q-20 -3 -27 -19l-2 -9q0 -16 39 -129.5t49 -124.5l5 -1l5 1q12 11 58 120t46 131q0 18 -33.5 27t-34.5 22q0 15 22 15l32 -2l31 -2l42 1l42 1q15 0 15 -13q0 -5 -6 -9.5t-35 -16.5
q-20 -6 -33 -34q-43 -90 -126 -276q-18 -48 -82 -193l-47 -112q-38 -70 -86 -70q-23 0 -45 14.5t-22 38.5q0 18 15 35.5t35 17.5l21 -2l21 -2q27 0 41 20q10 15 37 77q24 57 26 74q0 19 -111 313l-29 76q-6 14 -34 24.5t-34 26.5z" />
    <glyph glyph-name="z" unicode="z" horiz-adv-x="401" 
d="M249 375q0 7 -9 13l-8 1h-8h-86q-34 0 -57 -15l-44 -41l-9 -4q-9 1 -11 12q0 15 48 138l10 3l6 -4q6 -11 12 -40q1 -7 6 -10q12 -8 85 -8h46l47 1q78 0 102 -6l4 -3l2 -8q0 -19 -110 -165q-61 -83 -92 -128t-42 -67v-5l1 -3l2 -2h6l6 -1q80 0 143 7q26 3 42 38.5t30 40.5
l11 -5l1 -8q0 -8 -1 -20t-4 -27q-6 -42 -9 -48l-5 -11q-2 -4 -11 -5q-8 0 -22 1t-32 4l-53 5l-99 -4l-98 -3h-15l-14 1q-12 9 -12 14q0 21 83 135l104 140q24 33 54 87z" />
    <glyph glyph-name="braceleft" unicode="{" horiz-adv-x="338" 
d="M43 298q56 0 72 68q4 16 6 42t2 71v44q0 92 12 133q23 75 93 75h68v-65h-44q-47 0 -47 -84v-172q0 -42 -25.5 -87t-64.5 -55q55 -18 77 -84q13 -46 13 -120v-43l-1 -44q0 -110 47 -110h45v-66l-67 1q-48 0 -78 43q-26 37 -26 87v173q0 46 -18 84q-23 48 -64 48v61z" />
    <glyph glyph-name="bar" unicode="|" horiz-adv-x="263" 
d="M95 747h74v-766h-74v766z" />
    <glyph glyph-name="braceright" unicode="}" horiz-adv-x="338" 
d="M296 237q-40 0 -64 -48q-18 -36 -18 -84v-173q0 -52 -26 -88q-31 -43 -78 -43h-67v66h43q48 0 48 110v44l-1 43q0 77 13 119q21 65 77 83q-18 7 -34.5 21.5t-29.5 38.5q-25 44 -25 84v173q0 83 -47 83h-44v65l67 1q77 0 98 -95q3 -17 5 -55.5t2 -102.5q0 -84 8 -113
q17 -68 73 -68v-61z" />
    <glyph glyph-name="asciitilde" unicode="~" horiz-adv-x="0" 
d="M-60 873q27 0 75 -17t73 -17q22 0 44 17.5t31 17.5q5 0 7 -12l-8 -18q-16 -27 -51.5 -50.5t-61.5 -23.5q-29 0 -76.5 20t-72.5 20q-15 0 -33 -18q-17 -15 -27 -17q-7 5 -10 9q16 34 44 59q33 30 66 30z" />
    <glyph glyph-name="nonbreakingspace" unicode="&#xa0;" horiz-adv-x="500" 
 />
    <glyph glyph-name="exclamdown" unicode="&#xa1;" horiz-adv-x="254" 
d="M109 707q28 0 50 -19t22 -47q0 -29 -21 -50q-21 -19 -51 -19q-28 0 -48 20q-19 22 -19 49q0 26 21 46t46 20zM101 482l6 1q19 0 19 -61q0 -82 28 -228q18 -95 18 -125q0 -31 -14 -54t-42 -23h-16q-52 0 -52 79q0 39 22 187l16 143l7 67q1 9 8 14z" />
    <glyph glyph-name="cent" unicode="&#xa2;" horiz-adv-x="423" 
d="M431 402q0 -21 -11 -36q-4 -6 -7 -9q-8 -7 -21 -7q-24 0 -52 35q-30 40 -49 49h-5q-3 -6 -3 -59l2 -327l6 -3q23 0 54 12.5t49 16.5q15 -3 16 -16q0 -42 -124 -67l-3 -6l1 -6v-44l-1 -44q-4 -10 -24 -10h-5l-4 1l-5 9v93h-5q-94 0 -157.5 65t-63.5 160q0 96 63.5 170
t160.5 87q3 5 3 34v26l-1 25q0 8 6 14l17 2q16 0 16 -28l-1 -22l-1 -24l1 -13q1 -7 7 -11h4q68 0 102.5 -17.5t34.5 -49.5zM246 431l-7 4l-3 -1q-53 -18 -83 -83q-25 -56 -25 -119q0 -59 28.5 -109t81.5 -69l6 3l2 192v182z" />
    <glyph glyph-name="sterling" unicode="&#xa3;" horiz-adv-x="571" 
d="M166 149q12 11 54 174q0 6 -10 7l-57 -3l-57 -2q-11 0 -17 7v4l-1 3q0 28 68 28h27l27 -1q16 0 21 2l6 5l19 84l19 62q12 28 34 56q71 87 205 87q49 0 83 -17q43 -22 43 -66t-44 -44q-27 0 -34 23l-11 47q-14 25 -61 25q-101 0 -131 -158l-15 -90q0 -9 28 -9l79 4l81 4h4
l3 -1l9 -7v-8q0 -16 -12 -22q-14 -4 -173 -4q-29 0 -35 -21.5t-11 -38.5q-8 -27 -13 -40q-12 -35 -34 -70q-4 -9 -11 -18t-12 -16l1 -6l58 -37l79 -68q57 -51 78 -51q11 0 25 14q13 11 19 13q6 0 11.5 -5.5t7.5 -12.5q0 -14 -53.5 -46.5t-72.5 -32.5q-27 0 -98 81.5
t-91 88.5l-8 -1l-63 -44q-37 -23 -73 -23q-30 0 -50 16.5t-20 45.5q0 80 165 80zM18 66q0 -31 39 -31q27 0 51 24l37 46l-3 8l-13 3h-23q-27 0 -57.5 -13.5t-30.5 -36.5z" />
    <glyph glyph-name="currency" unicode="&#xa4;" horiz-adv-x="631" 
d="M425 268h-232q0 -51 14.5 -93t41.5 -79q57 -80 156 -80q54 0 97 34q22 18 59 64q25 33 37 34h4l3 -4l1 -3l-5 -36l-6 -47q-6 -25 -26 -36q-67 -35 -165 -35q-90 0 -174 44q-92 47 -130 122q-25 48 -31 115h-50l12 28h36v7l1 21h-49l12 28h39q15 131 116 205q94 70 237 70
q51 0 99 -9q69 -13 74 -37.5t8 -46t3 -38.5l-1 -4v-4q-2 -3 -9 -5l-26 31q-29 33 -61 56q-45 30 -101 30q-94 0 -155 -79q-49 -65 -61 -169h268l-12 -28h-258v-15v-13h246z" />
    <glyph glyph-name="section" unicode="&#xa7;" horiz-adv-x="530" 
d="M61 682q0 76 57 123q54 43 131 43q38 0 98 -12.5t86 -33.5l8 -6v-4l-46 -116l-12 -3q-14 0 -20 50q0 7 -1.5 16t-5.5 19q-18 58 -98 58q-39 0 -72.5 -20t-33.5 -58q0 -55 87 -126l161 -127q87 -81 87 -167q0 -64 -32 -124q-15 -29 -73 -106q44 -44 60 -70q26 -41 26 -87
q0 -89 -60.5 -141t-150.5 -52q-51 0 -115 19q-83 24 -83 62l21 64l24 66q3 3 12 3l12 -7q4 -8 7 -21.5t3 -32.5q0 -35 9 -60q18 -55 110 -55q48 0 81.5 30.5t33.5 79.5q0 59 -87 131l-161 126q-86 83 -86 177q0 58 35 113q24 39 77 92q-41 37 -62 69q-27 41 -27 88zM401 250
q0 72 -81 144l-138 104q-61 -58 -61 -127q0 -62 90 -142l141 -112q23 37 36 71t13 62z" />
    <glyph glyph-name="dieresis" unicode="&#xa8;" horiz-adv-x="0" 
d="M-93 651q25 0 42 -17t17 -42t-18 -42t-41 -17t-40.5 17.5t-17.5 39.5q0 24 15.5 42.5t42.5 18.5zM86 652q25 0 43 -18t18 -44q0 -21 -18.5 -38.5t-40.5 -17.5q-24 0 -41.5 18.5t-17.5 41.5t17 40.5t40 17.5z" />
    <glyph glyph-name="copyright" unicode="&#xa9;" horiz-adv-x="776" 
d="M505 493l5 -121h-20q-6 41 -39 69.5t-75 28.5q-59 0 -96 -53q-32 -47 -32 -109q0 -67 33 -108t97 -41q38 0 67 12q21 8 56 39l10 -18q-33 -34 -68.5 -52t-73.5 -18q-81 0 -131 51.5t-50 132.5q0 79 50.5 134.5t125.5 55.5q15 0 49 -9t53 -9q17 0 22 15h17zM365 642
q135 0 232 -95.5t97 -231.5q0 -135 -96.5 -232t-233.5 -97q-134 0 -231 96t-97 232q0 134 96 231t233 97zM365 24q119 0 204.5 84.5t85.5 205.5q0 120 -85 205.5t-205 85.5t-205 -85.5t-85 -205.5t85 -205t205 -85z" />
    <glyph glyph-name="guillemotleft" unicode="&#xab;" horiz-adv-x="338" 
d="M82 360l1 3l47 52q37 40 47 41q7 0 11 -11q0 -9 -37.5 -64.5t-43.5 -77.5q3 -21 38.5 -66.5t35.5 -65.5q-2 -1 -5 -3.5t-9 -4.5q-11 3 -62 59t-61 74l-2 10q0 27 40 54zM292 448h4q10 0 10 -11q0 -6 -37.5 -60t-39.5 -72q0 -12 37.5 -63.5t41.5 -73.5l-3 -7l-9 -6
q-16 5 -77 70.5t-63 80.5q0 12 61 74q55 58 75 68z" />
    <glyph glyph-name="logicalnot" unicode="&#xac;" horiz-adv-x="700" 
d="M3 275h633v-275h-51v222h-582v53z" />
    <glyph glyph-name="registered" unicode="&#xae;" horiz-adv-x="776" 
d="M364 -19q-134 0 -231.5 96t-97.5 233q0 135 97 232t232 97t232 -97t97 -232t-96.5 -232t-232.5 -97zM363 600q-119 0 -204 -85.5t-85 -205.5q0 -119 84 -204.5t205 -85.5q120 0 205.5 85.5t85.5 205.5t-85.5 205t-205.5 85zM314 187q0 -27 46 -27v-17h-153v17q46 0 46 24
v275q0 20 -11 26l-30 2v17h163q129 0 129 -88q0 -39 -28.5 -67.5t-67.5 -28.5l114 -147q10 -13 34 -13v-17h-90l-127 168h-25v-124zM314 333q25 0 46.5 3.5t36.5 9.5q43 18 43 63q0 47 -32 64q-22 11 -74 11q-21 0 -21 -18z" />
    <glyph glyph-name="degree" unicode="&#xb0;" horiz-adv-x="393" 
d="M184 367q-58 0 -100 41.5t-42 99.5q0 59 41.5 101t100.5 42q56 0 99.5 -42.5t43.5 -99.5q0 -56 -42 -99t-101 -43zM184 612q-42 0 -72.5 -30.5t-30.5 -74.5q0 -42 30.5 -72.5t74.5 -30.5q41 0 72.5 30.5t31.5 73.5q0 42 -31.5 73t-74.5 31z" />
    <glyph glyph-name="plusminus" unicode="&#xb1;" horiz-adv-x="539" 
d="M227 389v225h53v-225h225v-53h-225v-226h-53v226h-226v53h226zM1 0v53h504v-53h-504z" />
    <glyph glyph-name="acute" unicode="&#xb4;" horiz-adv-x="0" 
d="M101 687q12 0 24.5 -16t12.5 -30t-94.5 -73t-114.5 -59q-11 0 -13 12l5 11q15 19 91 87t89 68z" />
    <glyph glyph-name="mu" unicode="&#xb5;" horiz-adv-x="566" 
d="M132 476v-316q0 -110 90 -110q28 0 61.5 22.5t45.5 50.5v353h82l1 -364q0 -30 11 -52q12 -29 38 -29q25 0 37 22l15 44h19q-27 -112 -115 -112q-42 0 -63 27q-15 20 -24 67q-72 -96 -150 -96q-28 0 -51 16l-45 31v-22q0 -26 15.5 -78.5t15.5 -75.5q0 -25 -11.5 -46
t-34.5 -21q-21 0 -35 24q-10 20 -10 45q0 27 13 76q1 5 7 33.5t6 42.5v468h82z" />
    <glyph glyph-name="paragraph" unicode="&#xb6;" horiz-adv-x="676" 
d="M546 715v-55h-34v-829h-59v829h-146v-829h-59v492q-75 12 -117 63t-42 127q0 97 64 152q61 50 160 50h233z" />
    <glyph glyph-name="periodcentered" unicode="&#xb7;" horiz-adv-x="169" 
d="M91 345q24 0 41.5 -17.5t17.5 -42.5q0 -22 -17.5 -39.5t-40.5 -17.5q-24 0 -43 16q-17 17 -17 42t17 42t42 17z" />
    <glyph glyph-name="periodcentered" unicode="&#x2219;" horiz-adv-x="169" 
d="M91 345q24 0 41.5 -17.5t17.5 -42.5q0 -22 -17.5 -39.5t-40.5 -17.5q-24 0 -43 16q-17 17 -17 42t17 42t42 17z" />
    <glyph glyph-name="cedilla" unicode="&#xb8;" horiz-adv-x="0" 
d="M-35 -202q71 0 71 51q0 9 -12 20q-11 8 -22 8q-9 0 -23 -5.5t-21 -5.5q-5 4 -5 6q0 5 27 62l33 68h36l-31 -68q33 0 57 -18q27 -18 27 -51q0 -42 -40 -70q-17 -11 -37.5 -17t-44.5 -6q-43 0 -78 17q-46 21 -46 58q0 36 40 36q24 -9 24 -24q0 -23 -22 -38q15 -23 67 -23z
" />
    <glyph glyph-name="guillemotright" unicode="&#xbb;" horiz-adv-x="338" 
d="M43 458q10 0 76 -69t66 -80t-55 -69q-50 -52 -71 -68q-8 -6 -15 -6l-9 4l-1 7q0 5 39 60t39 72q0 11 -37.5 64t-42.5 72q0 6 11 13zM233 311q0 13 -36 64t-38 65q0 12 16 12q5 0 64 -64t59 -81q0 -11 -60.5 -77.5t-73.5 -72.5l-9 6l-2 5q4 24 43 77q35 49 37 66z" />
    <glyph glyph-name="questiondown" unicode="&#xbf;" horiz-adv-x="381" 
d="M248 706q28 0 47 -22t19 -50q0 -26 -22 -47q-22 -19 -49 -19q-26 0 -47 20q-20 22 -20 47q0 29 21 50t51 21zM264 504l3 -16q0 -102 -6 -146q-2 -16 -44 -45q-56 -37 -75 -62q-40 -46 -40 -105q0 -36 23.5 -68.5t59.5 -32.5q18 0 47.5 18.5t47.5 20.5q30 0 30 -45
q0 -41 -64 -41q-77 0 -141 60t-64 141q0 68 35 116q22 29 90 82l49 40q17 15 20.5 52t15.5 39q10 -3 13 -8z" />
    <glyph glyph-name="Agrave" unicode="&#xc0;" horiz-adv-x="720" 
d="M205 885l32 -11q175 -66 201 -97l1 -7q0 -7 -14 -13l-139 37q-111 33 -111 56q0 11 9 23t21 12zM-18 17q0 12 30 21q44 13 54 20q14 11 31 48l96 216q66 143 96 216l39 106q31 80 49 89q16 -7 40 -76l28 -91l100 -280l36 -104q21 -61 43 -100q15 -27 55 -43
q33 -12 34 -25q0 -16 -24 -16q-11 0 -31 1t-45 4q-51 6 -77 6l-53 -2l-53 -2q-29 0 -29 20q0 15 31 19q34 0 45 16q6 6 6 11q0 13 -25.5 94.5t-34.5 97.5q-6 15 -39 15l-48 -1l-49 -2l-33 2q-15 0 -24 -10l-13 -25q-29 -63 -45 -105.5t-16 -57.5q0 -30 45 -39.5t47 -24.5
q0 -18 -17 -18l-60 4l-61 4q-17 0 -24 -0.5t-31 -4.5l-55 -5q-18 0 -18 22zM250 333q0 -8 19 -8h101q25 0 26 16q0 15 -27 89q-8 20 -16 41q-13 31 -22 49q-4 3 -6 3l-2 -2l-41 -98q-32 -76 -32 -90z" />
    <glyph glyph-name="Aacute" unicode="&#xc1;" horiz-adv-x="720" 
d="M474 886q11 0 17.5 -11.5t8.5 -26.5q0 -15 -111.5 -53t-138.5 -38q-13 0 -14 14q3 8 5 10l12 7l13 8q171 90 208 90zM-18 18q0 12 30 21q44 13 54 20q14 11 31 48l96 216q66 143 96 216l39 106q31 80 49 89q16 -7 40 -76l28 -91l100 -280l36 -104q21 -61 43 -100
q15 -27 55 -43q33 -12 34 -25q0 -16 -24 -16q-11 0 -31 1t-45 4q-51 6 -77 6l-53 -2l-53 -2q-29 0 -29 20q0 15 31 19q34 0 45 16q6 6 6 11q0 13 -25.5 94.5t-34.5 97.5q-6 15 -39 15l-48 -1l-49 -2l-33 2q-15 0 -24 -10l-13 -25q-29 -63 -45 -105.5t-16 -57.5
q0 -30 45 -39.5t47 -24.5q0 -18 -17 -18l-60 4l-61 4q-17 0 -24 -0.5t-31 -4.5l-55 -5q-18 0 -18 22zM250 334q0 -8 19 -8h101q25 0 26 16q0 15 -27 89q-8 20 -16 41q-13 31 -22 49q-4 3 -6 3l-2 -2l-41 -98q-32 -76 -32 -90z" />
    <glyph glyph-name="Acircumflex" unicode="&#xc2;" horiz-adv-x="720" 
d="M342 885q16 0 66 -44q44 -38 59 -59l2 -9l-8 -9l-5 -2q-15 2 -57 27q-48 28 -62 33q-12 -3 -59 -31.5t-54 -29.5l-8 3l-3 5q0 14 55.5 65t73.5 51zM-18 17q0 12 30 21q44 13 54 20q14 11 31 48l96 216q66 143 96 216l39 106q31 80 49 89q16 -7 40 -76l28 -91l100 -280
l36 -104q21 -61 43 -100q15 -27 55 -43q33 -12 34 -25q0 -16 -24 -16q-11 0 -31 1t-45 4q-51 6 -77 6l-53 -2l-53 -2q-29 0 -29 20q0 15 31 19q34 0 45 16q6 6 6 11q0 13 -25.5 94.5t-34.5 97.5q-6 15 -39 15l-48 -1l-49 -2l-33 2q-15 0 -24 -10l-13 -25q-29 -63 -45 -105.5
t-16 -57.5q0 -30 45 -39.5t47 -24.5q0 -18 -17 -18l-60 4l-61 4q-17 0 -24 -0.5t-31 -4.5l-55 -5q-18 0 -18 22zM250 333q0 -8 19 -8h101q25 0 26 16q0 15 -27 89q-8 20 -16 41q-13 31 -22 49q-4 3 -6 3l-2 -2l-41 -98q-32 -76 -32 -90z" />
    <glyph glyph-name="Atilde" unicode="&#xc3;" horiz-adv-x="720" 
d="M173 799q58 75 105 75q24 0 73.5 -17.5t75.5 -17.5q21 0 43 16t32 18q4 -3 5 -5l1 -6l-8 -18q-16 -27 -51.5 -50.5t-61.5 -23.5t-74 19.5t-73 19.5q-17 0 -35.5 -17.5t-26.5 -17.5q-9 3 -9 11zM-17 16q0 12 30 21q44 13 54 20q14 11 31 48l96 216q66 143 96 216l39 106
q31 80 49 89q16 -7 40 -76l28 -91l100 -280l36 -104q21 -61 43 -100q15 -27 55 -43q33 -12 34 -25q0 -16 -24 -16q-11 0 -31 1t-45 4q-51 6 -77 6l-53 -2l-53 -2q-29 0 -29 20q0 15 31 19q34 0 45 16q6 6 6 11q0 13 -25.5 94.5t-34.5 97.5q-6 15 -39 15l-48 -1l-49 -2l-33 2
q-15 0 -24 -10l-13 -25q-29 -63 -45 -105.5t-16 -57.5q0 -30 45 -39.5t47 -24.5q0 -18 -17 -18l-60 4l-61 4q-17 0 -24 -0.5t-31 -4.5l-55 -5q-18 0 -18 22zM251 332q0 -8 19 -8h101q25 0 26 16q0 15 -27 89q-8 20 -16 41q-13 31 -22 49q-4 3 -6 3l-2 -2l-41 -98
q-32 -76 -32 -90z" />
    <glyph glyph-name="Adieresis" unicode="&#xc4;" horiz-adv-x="720" 
d="M226 826q0 22 18.5 38.5t41.5 16.5t40.5 -17t17.5 -39q0 -23 -17.5 -42t-41.5 -19t-41.5 19t-17.5 43zM469 881q24 0 41 -17t17 -42q0 -23 -17.5 -40.5t-41.5 -17.5t-42 18q-16 19 -16 44q0 23 18 39t41 16zM24 41q48 15 63 42l39 98q21 55 73 159l91 211q75 174 87 180
q8 -1 20 -21q30 -92 58 -174q2 -6 52 -146l78 -210q5 -20 14 -43.5t27 -59.5q11 -17 52 -38q33 -16 35 -27q0 -13 -21 -16q-11 0 -30.5 1t-44.5 4q-48 6 -74 6l-57 -1l-56 -1q-24 0 -30 18q0 9 11 15l41 7q23 6 32 25q-3 26 -12.5 57.5t-30.5 84.5q-3 11 -6.5 21t-10 27
t-46.5 17l-52 -1l-53 -2q-22 0 -30.5 -1.5t-16 -7t-20 -40t-20.5 -52.5q-30 -68 -30 -98q0 -8 7.5 -18t46 -19t38.5 -25q0 -9 -18 -17q-68 9 -114 9q-9 0 -23.5 -1t-44 -5.5t-49.5 -4.5l-6 2l-5 4l-6 11q0 16 42 30zM252 329l5 -3l11 -2l98 1q8 0 26 6l4 9v4q0 9 -32 92
q-12 33 -24 63q-3 9 -9 22l-4 2l-9 -12q-4 -15 -38 -95q-30 -72 -30 -83z" />
    <glyph glyph-name="Aring" unicode="&#xc5;" horiz-adv-x="720" 
d="M374 926q37 0 63.5 -24.5t26.5 -61.5q0 -36 -26 -62q-24 -26 -61 -26q-35 0 -60.5 26.5t-25.5 60.5q0 33 24 60t59 27zM374 785q22 0 39.5 14t17.5 35q0 60 -55 60q-23 0 -38.5 -17t-15.5 -41q0 -18 16 -35q18 -16 36 -16zM-19 19q0 8 40 24l50 21q8 6 108 237l107 236
l35 93q21 60 41 89q6 9 13 13q11 -3 38 -72l29 -88q16 -50 33 -99q13 -40 35 -99q40 -113 75 -196q8 -33 32 -89q18 -30 57 -48l22 -10q15 -9 15 -17q0 -16 -22 -16q-11 0 -29 1t-41 4q-45 6 -70 6l-57 -2l-57 -1q-36 0 -36 16v4q3 14 42.5 19.5t39.5 25.5q0 19 -23 87
q-9 29 -17.5 54t-14.5 37q-9 21 -14.5 24t-11.5 4t-22 1l-51 -1l-51 -1q-41 0 -53 -13l-22 -55q-23 -54 -34.5 -86.5t-11.5 -44.5q0 -23 36 -35l53 -18l2 -5q0 -20 -17 -22l-63 4l-63 4q-8 0 -22 -1t-30 -4l-51 -5q-19 0 -19 24zM249 331l2 -3l8 -3h113q20 0 23 15
q0 14 -29 92t-38 90l-6 -2l-41 -97q-32 -77 -32 -92z" />
    <glyph glyph-name="AE" unicode="&#xc6;" horiz-adv-x="951" 
d="M-36 22q2 3 39 15.5t57 35.5q37 43 160 231l185 276q18 27 18 48q0 24 -40 28l-49 4q-7 5 -7 20q0 6 8 14l4 1l5 1l25 -4q32 0 94 -3t93 -3l144 2l143 2l36 -2l7 -3q3 -5 5 -26.5t2 -36.5l4 -70q0 -20 -16 -20q-9 0 -19 28l-13 37q-27 57 -128 57h-24l-25 -1
q-32 0 -41.5 -11t-9.5 -46l-2 -173q0 -30 7 -37q12 -9 67 -9l23 1h22q27 0 44 18q8 9 18.5 37.5t22.5 39.5l8 4q10 -7 10 -25q0 -9 -1 -23.5t-4 -34.5l-4 -58l2 -47l3 -45l-2 -12q-8 -6 -16 -6q-9 0 -16 28l-7 37q-12 49 -87 49h-41q-26 0 -37 -6.5t-11 -33.5v-48l-1 -48
v-81q0 -55 26 -74q21 -15 80 -15q114 0 174 132l13 5q7 -3 10 -5l1 -5l-25 -122q-3 -22 -8 -28q-8 -11 -25 -11l-130 3l-131 4l-100 -4l-101 -4q-16 0 -17 16q0 14 20 17l30 -1q42 0 58 32q10 23 10 70l-1 108q0 24 -19 30.5t-59.5 9.5t-97.5 3q-31 0 -39 -4q-12 -3 -28 -25
q-12 -17 -26.5 -39t-36.5 -59q-45 -74 -49 -98q3 -16 34 -22q30 -3 30 -21q0 -9 -12 -18h-9q-8 0 -22 1t-32 4q-35 6 -52 6q-16 0 -24 -1t-32 -7l-57 -7q-13 0 -13 19q3 7 5 9zM464 321q24 0 31 19l3 40l2 103l3 144q0 5 -5 8q-12 -8 -99 -142t-89 -146q0 -17 25 -23h39
l45 -2z" />
    <glyph glyph-name="Ccedilla" unicode="&#xc7;" horiz-adv-x="677" 
d="M287 -202q67 0 67 51q0 9 -12 20q-11 8 -22 8q-8 0 -22 -5.5t-22 -5.5q-5 4 -5 6q17 40 60 130h36l-31 -68q82 0 82 -72q0 -41 -39 -68q-17 -10 -36.5 -16t-42.5 -6q-40 0 -79 18q-47 21 -47 58q0 35 41 35l16 -9q6 -6 7 -17l-4 -19q-9 -12 -16 -16q6 -24 69 -24z
M435 716q63 0 114 -11q77 -15 86 -47q11 -53 11 -93v-4l-1 -5q-3 -3 -10 -5l-30 35q-33 40 -70 64q-55 35 -116 35q-124 0 -192 -110q-59 -95 -59 -225q0 -134 54 -226q66 -110 192 -110q61 0 112 39q28 23 67 74q30 39 43 39l5 -1l3 -4l1 -3l-6 -42l-8 -55q-5 -27 -29 -40
q-31 -17 -92 -29q-24 -5 -49.5 -8t-47.5 -3q-104 0 -201 50q-104 54 -149 140q-37 74 -37 173q0 177 118 277q110 95 291 95z" />
    <glyph glyph-name="Egrave" unicode="&#xc8;" 
d="M124 885q9 0 36.5 -10.5t81.5 -35.5q100 -45 116 -62l2 -6q0 -11 -15 -14l-139 37q-111 33 -111 57q0 10 9 22t20 12zM104 334l-1 123l-3 122v33q-3 18 -4 28q-5 21 -50 27q-43 4 -47 25q3 13 13 14q30 0 87 -6l88 -6l102 -1l103 1h103q7 -5 11 -9q2 -17 3 -36.5t1 -61.5
v-29q0 -17 -15 -19l-4 1l-4 1q-3 4 -11 29l-10 33q-24 57 -166 57h-22q-54 0 -54 -62v-19l1 -20l-1 -48l-1 -48q0 -66 15 -75q9 -6 35 -6l27 1h28q45 0 62 13q9 7 15.5 35.5t21.5 48.5l10 4l9 -4l4 -9v-7l-4 -108l-3 -108q0 -15 -3.5 -18.5t-9.5 -3.5q-10 0 -16 13l-3 23
q-8 54 -27 69t-76 15h-21q-43 0 -52 -8q-14 -9 -14 -48q0 -70 1 -115.5t5.5 -77.5t28 -48t81.5 -16q63 0 104 34q24 21 49 67q20 38 34 44l5 -1l8 -6l1 -5q-31 -160 -42 -165l-18 -2l-117 4l-116 5h-93q-29 0 -73 -8l-73 -7q-20 0 -20 22q0 11 33 20l45 7q41 12 41 125
l-1 38l-1 39v45z" />
    <glyph glyph-name="Eacute" unicode="&#xc9;" 
d="M161 781q33 20 117 61q93 45 116 45q10 0 17 -12.5t9 -26.5q0 -15 -112 -54q-102 -35 -138 -38q-12 0 -13 14l1 3zM105 334l-1 123l-3 122v33q-3 18 -4 28q-5 21 -50 27q-43 4 -47 25q3 13 13 14q30 0 87 -6l88 -6l102 -1l103 1h103q7 -5 11 -9q2 -17 3 -36.5t1 -61.5
v-29q0 -17 -15 -19l-4 1l-4 1q-3 4 -11 29l-10 33q-24 57 -166 57h-22q-54 0 -54 -62v-19l1 -20l-1 -48l-1 -48q0 -66 15 -75q9 -6 35 -6l27 1h28q45 0 62 13q9 7 15.5 35.5t21.5 48.5l10 4l9 -4l4 -9v-7l-4 -108l-3 -108q0 -15 -3.5 -18.5t-9.5 -3.5q-10 0 -16 13l-3 23
q-8 54 -27 69t-76 15h-21q-43 0 -52 -8q-14 -9 -14 -48q0 -70 1 -115.5t5.5 -77.5t28 -48t81.5 -16q63 0 104 34q24 21 49 67q20 38 34 44l5 -1l8 -6l1 -5q-31 -160 -42 -165l-18 -2l-117 4l-116 5h-93q-29 0 -73 -8l-73 -7q-20 0 -20 22q0 11 33 20l45 7q41 12 41 125
l-1 38l-1 39v45z" />
    <glyph glyph-name="Ecircumflex" unicode="&#xca;" 
d="M262 885q16 0 65 -42t61 -61l1 -3v-4q0 -12 -12 -12q-23 3 -60 29t-60 30q-12 -3 -59 -34q-42 -27 -54 -27l-8 3l-3 5q3 17 57.5 66.5t71.5 49.5zM105 334l-1 123l-3 122v33q-3 18 -4 28q-5 21 -50 27q-43 4 -47 25q3 13 13 14q30 0 87 -6l88 -6l102 -1l103 1h103
q7 -5 11 -9q2 -17 3 -36.5t1 -61.5v-29q0 -17 -15 -19l-4 1l-4 1q-3 4 -11 29l-10 33q-24 57 -166 57h-22q-54 0 -54 -62v-19l1 -20l-1 -48l-1 -48q0 -66 15 -75q9 -6 35 -6l27 1h28q45 0 62 13q9 7 15.5 35.5t21.5 48.5l10 4l9 -4l4 -9v-7l-4 -108l-3 -108
q0 -15 -3.5 -18.5t-9.5 -3.5q-10 0 -16 13l-3 23q-8 54 -27 69t-76 15h-21q-43 0 -52 -8q-14 -9 -14 -48q0 -70 1 -115.5t5.5 -77.5t28 -48t81.5 -16q63 0 104 34q24 21 49 67q20 38 34 44l5 -1l8 -6l1 -5q-31 -160 -42 -165l-18 -2l-117 4l-116 5h-93q-29 0 -73 -8l-73 -7
q-20 0 -20 22q0 11 33 20l45 7q41 12 41 125l-1 38l-1 39v45z" />
    <glyph glyph-name="Edieresis" unicode="&#xcb;" 
d="M345 880q25 0 43.5 -17t18.5 -41q0 -23 -17.5 -42t-41.5 -19q-25 0 -42.5 18.5t-17.5 44.5q0 21 18.5 38.5t38.5 17.5zM105 824q0 23 19 39t43 16q20 0 37.5 -18.5t17.5 -39.5q0 -25 -17 -42q-15 -17 -41 -17q-27 0 -43 18t-16 44zM105 333l-1 123l-3 122v33q-3 18 -4 28
q-5 21 -50 27q-43 4 -47 25q3 13 13 14q30 0 87 -6l88 -6l102 -1l103 1h103q7 -5 11 -9q2 -17 3 -36.5t1 -61.5v-29q0 -17 -15 -19l-4 1l-4 1q-3 4 -11 29l-10 33q-24 57 -166 57h-22q-54 0 -54 -62v-19l1 -20l-1 -48l-1 -48q0 -66 15 -75q9 -6 35 -6l27 1h28q45 0 62 13
q9 7 15.5 35.5t21.5 48.5l10 4l9 -4l4 -9v-7l-4 -108l-3 -108q0 -15 -3.5 -18.5t-9.5 -3.5q-10 0 -16 13l-3 23q-8 54 -27 69t-76 15h-21q-43 0 -52 -8q-14 -9 -14 -48q0 -70 1 -115.5t5.5 -77.5t28 -48t81.5 -16q63 0 104 34q24 21 49 67q20 38 34 44l5 -1l8 -6l1 -5
q-31 -160 -42 -165l-18 -2l-117 4l-116 5h-93q-27 0 -73 -7q-25 -4 -41.5 -6t-31.5 -2q-20 0 -20 22q0 11 33 20l45 7q41 12 41 125l-1 38l-1 39v45z" />
    <glyph glyph-name="Igrave" unicode="&#xcc;" horiz-adv-x="338" 
d="M24 885q10 0 15 -1t16 -6q64 -27 107 -50l54 -26q42 -21 43 -31q0 -11 -14 -14l-139 37q-110 32 -110 57q0 11 8.5 22.5t19.5 11.5zM-6 19q3 15 45 20q43 0 57 25.5t14 332.5v108l1 79q0 46 -12 63q-16 19 -63 19q-12 5 -12 16q0 17 19 17l70 -3l69 -3l67 3l66 3
q16 0 17 -14q0 -15 -45 -21t-55 -26q-4 -8 -4 -78l1 -116l2 -116l-2 -112l-2 -113q0 -41 25 -56l47 -11q25 -5 25 -26l-4 -7q-5 -6 -21 -6q-20 0 -38 3t-35.5 6t-32 5t-28.5 2q-27 0 -73 -6.5t-70 -6.5h-12l-7 3z" />
    <glyph glyph-name="Iacute" unicode="&#xcd;" horiz-adv-x="338" 
d="M295 886q9 0 16 -12t9 -25q0 -15 -110.5 -53.5t-138.5 -38.5q-12 0 -15 13q0 6 6.5 12t25.5 13q37 21 104 53q82 38 103 38zM-6 19q3 15 45 20q43 0 57 25.5t14 332.5v108l1 79q0 46 -12 63q-16 19 -63 19q-12 5 -12 16q0 17 19 17l70 -3l69 -3l67 3l66 3q16 0 17 -14
q0 -15 -45 -21t-55 -26q-4 -8 -4 -78l1 -116l2 -116l-2 -112l-2 -113q0 -41 25 -56l47 -11q25 -5 25 -26l-4 -7q-5 -6 -21 -6q-20 0 -38 3t-35.5 6t-32 5t-28.5 2q-27 0 -73 -6.5t-70 -6.5h-12l-7 3z" />
    <glyph glyph-name="Icircumflex" unicode="&#xce;" horiz-adv-x="338" 
d="M36 782l62 60q48 43 64 43q17 0 67 -43q45 -39 60 -60v-7l-1 -4l-6 -7q-5 -1 -6 -2q-5 0 -53 28t-64 32q-22 -6 -57.5 -30.5t-56.5 -30.5l-5 1l-4 2l-2 6zM-5 19q3 15 45 20q43 0 57 25.5t14 332.5v108l1 79q0 46 -12 63q-16 19 -63 19q-12 5 -12 16q0 17 19 17l70 -3
l69 -3l67 3l66 3q16 0 17 -14q0 -15 -45 -21t-55 -26q-4 -8 -4 -78l1 -116l2 -116l-2 -112l-2 -113q0 -41 25 -56l47 -11q25 -5 25 -26l-4 -7q-5 -6 -21 -6q-20 0 -38 3t-35.5 6t-32 5t-28.5 2q-27 0 -73 -6.5t-70 -6.5h-12l-7 3z" />
    <glyph glyph-name="Idieresis" unicode="&#xcf;" horiz-adv-x="338" 
d="M245 880q25 0 43 -17t18 -41q0 -26 -17 -43.5t-42 -17.5q-23 0 -41 17.5t-18 40.5q0 25 17 43t40 18zM5 824q0 23 19 39t43 16q21 0 38.5 -18.5t17.5 -40.5q0 -25 -17 -42t-42 -17q-24 0 -41.5 18.5t-17.5 44.5zM-6 19q3 15 45 20q43 0 57 25.5t14 332.5v108l1 79
q0 46 -12 63q-16 19 -63 19q-12 5 -12 16q0 17 19 17l70 -3l69 -3l67 3l66 3q16 0 17 -14q0 -15 -45 -21t-55 -26q-4 -8 -4 -78l1 -116l2 -116l-2 -112l-2 -113q0 -41 25 -56l47 -11q25 -5 25 -26l-4 -7q-5 -6 -21 -6q-20 0 -38 3t-35.5 6t-32 5t-28.5 2q-27 0 -73 -6.5
t-70 -6.5h-12l-7 3z" />
    <glyph glyph-name="Ntilde" unicode="&#xd1;" horiz-adv-x="846" 
d="M337 873q28 0 76 -17t74 -17q19 0 42 17t31 17q7 0 7 -12q0 -6 -9 -17q-15 -25 -49 -49q-38 -25 -64 -25q-27 0 -74 20q-25 10 -42 15t-31 5q-19 0 -34.5 -16.5t-26.5 -18.5q-7 5 -10 9q0 24 42.5 56.5t67.5 32.5zM-14 683q5 12 22 12l52 -2l54 -2l56 3l55 3q12 0 30 -18
l25 -28l180 -212l170 -191q8 -7 18.5 -18.5t23.5 -28.5l8 -6q9 6 9 30v272q0 135 -19 153q-6 6 -21.5 9.5t-43.5 3.5q-46 0 -46 23q0 18 53 18l35 -2l34 -2l69 3l69 4q9 0 15 -15q-1 -8 -7 -14l-48 -13q-24 -6 -33 -34l-6 -49q0 -71 -2 -179.5t-3 -213t-1 -193.5
q0 -20 -16 -26l-12 7l-54 56q-61 64 -142 153q-70 76 -178 196l-179 200q-3 -8 -3 -14v-66q0 -287 10 -397q0 -38 39 -54l64 -14q34 -5 34 -23q0 -5 -7 -10.5t-24 -5.5l-81 2l-81 3l-49 -3l-50 -2q-13 3 -14 17q0 18 44 24t54.5 20t10.5 87l-2 51l-1 52l4 170l4 169
q0 59 -44 66l-44 4q-31 4 -32 19z" />
    <glyph glyph-name="Ograve" unicode="&#xd2;" horiz-adv-x="846" 
d="M262 885q18 0 118.5 -45.5t115.5 -61.5l1 -8q0 -10 -14 -13l-138 37q-111 33 -111 56q0 12 8.5 23.5t19.5 11.5zM403 722q112 0 196 -37.5t140.5 -132.5t56.5 -195q0 -168 -115 -274t-287 -106q-144 0 -258 104t-114 247q0 171 105.5 282.5t275.5 111.5zM404 19
q44 0 63 5q102 24 151 145q38 94 38 218q0 114 -68 203q-74 97 -184 97q-127 0 -191 -104q-52 -87 -52 -223q0 -127 57 -225q67 -116 186 -116z" />
    <glyph glyph-name="Oacute" unicode="&#xd3;" horiz-adv-x="846" 
d="M297 776l3 5q35 22 117 61q92 45 116 45q9 0 16 -12.5t9 -26.5q0 -15 -110.5 -53t-137.5 -38q-12 0 -15 10zM402 722q112 0 196 -37.5t140.5 -132.5t56.5 -195q0 -168 -115 -274t-287 -106q-144 0 -258 104t-114 247q0 171 105.5 282.5t275.5 111.5zM403 19q44 0 63 5
q102 24 151 145q38 94 38 218q0 114 -68 203q-74 97 -184 97q-127 0 -191 -104q-52 -87 -52 -223q0 -127 57 -225q67 -116 186 -116z" />
    <glyph glyph-name="Ocircumflex" unicode="&#xd4;" horiz-adv-x="846" 
d="M275 782q103 103 126 103q16 0 70 -46.5t57 -63.5l-1 -4l-7 -7l-5 -1q-7 0 -55 26l-64 32q-18 -5 -56 -30t-58 -30l-7 3l-4 6zM402 722q112 0 196 -37.5t140.5 -132.5t56.5 -195q0 -168 -115 -274t-287 -106q-144 0 -258 104t-114 247q0 171 105.5 282.5t275.5 111.5z
M403 19q44 0 63 5q102 24 151 145q38 94 38 218q0 114 -68 203q-74 97 -184 97q-127 0 -191 -104q-52 -87 -52 -223q0 -127 57 -225q67 -116 186 -116z" />
    <glyph glyph-name="Otilde" unicode="&#xd5;" horiz-adv-x="846" 
d="M337 873q28 0 76 -17t74 -17q19 0 42 17t31 17q7 0 7 -12q0 -6 -9 -17q-15 -25 -49 -49q-38 -25 -64 -25q-27 0 -74 20q-25 10 -42 15t-31 5q-19 0 -34.5 -16.5t-26.5 -18.5q-7 5 -10 9q0 24 42.5 56.5t67.5 32.5zM402 723q112 0 196 -37.5t140.5 -132.5t56.5 -195
q0 -168 -115 -274t-287 -106q-144 0 -258 104t-114 247q0 171 105.5 282.5t275.5 111.5zM403 20q44 0 63 5q102 24 151 145q38 94 38 218q0 114 -68 203q-74 97 -184 97q-127 0 -191 -104q-52 -87 -52 -223q0 -127 57 -225q67 -116 186 -116z" />
    <glyph glyph-name="Odieresis" unicode="&#xd6;" horiz-adv-x="846" 
d="M255 822q0 23 18 40t40 17q21 0 40.5 -16t19.5 -36v-12q0 -22 -20.5 -38t-44.5 -16q-20 0 -38 19q-15 18 -15 42zM498 879q23 0 40.5 -18.5t17.5 -42.5q0 -22 -17.5 -39.5t-41.5 -17.5q-23 0 -41 17t-18 40q0 26 17 43.5t43 17.5zM413 722q166 0 273.5 -102.5
t107.5 -267.5q0 -163 -119 -270q-115 -103 -280 -103q-155 0 -265 105.5t-110 259.5q0 168 113 275q109 103 280 103zM406 18q102 0 149.5 54t76.5 143q24 78 24 161q0 120 -65 210q-72 101 -187 101q-129 0 -194 -108q-50 -88 -50 -228q0 -122 60 -220q69 -113 186 -113z
" />
    <glyph glyph-name="Oslash" unicode="&#xd8;" horiz-adv-x="846" 
d="M692 722q11 0 23 -18v-5l-1 -3q-9 -14 -47 -53q60 -48 96 -130q33 -77 33 -159q0 -164 -123 -272q-117 -102 -286 -102q-57 0 -129 26t-106 63l-30 -36q-18 -21 -36 -30q-7 0 -14 6.5t-9 14.5q0 7 26 36l34 36q-101 101 -101 248q0 171 115 277q112 101 286 101
q108 0 212 -54l28 31q20 22 29 23zM578 604q-18 35 -73 59.5t-99 24.5q-124 0 -189 -105q-53 -88 -53 -222q0 -73 34 -181q11 17 82 88l52 60l181 201q15 15 36 40q9 11 29 35zM409 20q129 0 198 118q27 49 41 107t14 129q0 116 -58 196q-26 -20 -67 -71l-64 -79l-166 -180
l-89 -97q44 -62 79 -89q46 -34 112 -34z" />
    <glyph glyph-name="Ugrave" unicode="&#xd9;" horiz-adv-x="761" 
d="M222 885q13 0 32 -7.5t42 -18t66 -31.5q90 -42 93 -51l3 -8q0 -9 -15 -12l-138 37q-111 33 -111 57q0 11 8.5 22.5t19.5 11.5zM2 701l18 2l17 2l53 -2l52 -2l70 2l70 2q30 0 36 -20l-1 -6l-3 -6q-4 -5 -34 -8q-15 0 -26.5 -2t-16.5 -4q-26 -10 -26 -271v-53l-1 -53
q0 -126 27 -182q39 -81 155 -81q150 0 200 75q38 59 38 218l2 279q0 51 -28 63l-47 13q-36 11 -36 24q0 15 29 15l51 -2l52 -2l50 2l49 2q11 0 17 -5l4 -11q-3 -15 -32 -22l-43 -12q-25 -14 -25 -126l3 -222q0 -173 -54 -245q-64 -82 -234 -82q-150 0 -239 68q-41 32 -56 94
q-8 38 -8 113l2 129l3 129l1 117q0 24 -21 30l-40 2q-36 0 -39 20q3 13 11 18z" />
    <glyph glyph-name="Uacute" unicode="&#xda;" horiz-adv-x="761" 
d="M256 776q7 12 112 61t126 49q9 0 16.5 -12.5t7.5 -24.5q0 -15 -111.5 -53.5t-138.5 -38.5q-12 0 -13 10l1 5v4zM3 700l18 2l17 2l53 -2l52 -2l70 2l70 2q30 0 36 -20l-1 -6l-3 -6q-4 -5 -34 -8q-15 0 -26.5 -2t-16.5 -4q-26 -10 -26 -271v-53l-1 -53q0 -126 27 -182
q39 -81 155 -81q150 0 200 75q38 59 38 218l2 279q0 51 -28 63l-47 13q-36 11 -36 24q0 15 29 15l51 -2l52 -2l50 2l49 2q11 0 17 -5l4 -11q-3 -15 -32 -22l-43 -12q-25 -14 -25 -126l3 -222q0 -173 -54 -245q-64 -82 -234 -82q-150 0 -239 68q-41 32 -56 94q-8 38 -8 113
l2 129l3 129l1 117q0 24 -21 30l-40 2q-36 0 -39 20q3 13 11 18z" />
    <glyph glyph-name="Ucircumflex" unicode="&#xdb;" horiz-adv-x="761" 
d="M234 782q98 101 127 104q16 0 67 -44q24 -21 37 -34t22 -26l1 -7l-1 -4l-7 -7l-6 -2q-7 0 -56 26l-62 33q-14 -3 -61 -33q-41 -27 -52 -27l-9 3l-2 6zM2 701l18 2l17 2l53 -2l52 -2l70 2l70 2q30 0 36 -20l-1 -6l-3 -6q-4 -5 -34 -8q-15 0 -26.5 -2t-16.5 -4
q-26 -10 -26 -271v-53l-1 -53q0 -126 27 -182q39 -81 155 -81q150 0 200 75q38 59 38 218l2 279q0 51 -28 63l-47 13q-36 11 -36 24q0 15 29 15l51 -2l52 -2l50 2l49 2q11 0 17 -5l4 -11q-3 -15 -32 -22l-43 -12q-25 -14 -25 -126l3 -222q0 -173 -54 -245q-64 -82 -234 -82
q-150 0 -239 68q-41 32 -56 94q-8 38 -8 113l2 129l3 129l1 117q0 24 -21 30l-40 2q-36 0 -39 20q3 13 11 18z" />
    <glyph glyph-name="Udieresis" unicode="&#xdc;" horiz-adv-x="762" 
d="M263 828q0 20 18.5 37t39.5 17q25 0 42 -17q18 -15 18 -40q0 -24 -17.5 -43t-43.5 -19q-23 0 -41 19q-5 6 -9 14q-7 14 -7 32zM506 882q23 0 41.5 -17t18.5 -40q0 -24 -18 -44q-19 -17 -45 -17q-21 0 -38.5 18.5t-17.5 38.5q0 25 17 43t42 18zM-8 685l1 4q6 16 39 16
l60 -2l61 -2l66 2l66 3q20 0 28 -7l6 -13q0 -19 -43 -19q-44 0 -54 -35t-10 -192v-189q0 -113 36 -167q44 -65 154 -65q140 0 191 75q39 59 39 206v304q0 36 -26 50l-50 14q-28 6 -34 24l4 10q5 3 17 5l61 -2l61 -2l42 2l43 2q24 0 24 -15q0 -16 -22 -20q-33 -3 -43 -10
q-23 -14 -32 -59q-3 -20 -3 -68l1 -108l1 -108q0 -180 -52 -253q-62 -86 -238 -86q-165 0 -241 76q-36 36 -50 88q-9 33 -9 101l2 126l3 126v127q0 29 -21 37q-9 3 -44 3q-34 0 -34 21z" />
    <glyph glyph-name="germandbls" unicode="&#xdf;" horiz-adv-x="571" 
d="M70 190l2 74l2 74q0 20 -8 31l-10 4h-12l-12 -1q-29 0 -29 17q0 11 29 20q29 7 35 20l16 70q21 97 89 166q74 78 167 78q55 0 93 -40.5t38 -95.5q0 -40 -43 -91.5t-45 -57.5q0 -19 82 -157.5t82 -181.5q0 -48 -50 -85q-46 -34 -97 -34q-131 0 -131 89q0 48 48 48
q16 0 29.5 -12.5t13.5 -28.5l-3 -21l-2 -21q0 -30 49 -30q24 0 41.5 12.5t17.5 36.5q0 38 -85.5 182t-85.5 162l43 53q43 52 43 94q0 46 -24 85q-27 45 -71 45q-79 0 -103 -146q-1 -6 -4 -48q-6 -81 -6 -161l-3 -130q0 -160 28 -170l33 -6q23 -3 28 -12l2 -9q0 -13 -20 -16
q-8 0 -22 1t-32 4q-35 6 -54 6q-9 0 -23.5 -1t-34.5 -4l-59 -4l-6 2l-5 4l-4 9q3 18 31.5 22t36.5 18t8 56l-2 41z" />
    <glyph glyph-name="agrave" unicode="&#xe0;" horiz-adv-x="423" 
d="M61 643q0 14 11.5 28.5t24.5 14.5q20 0 181 -155l3 -9q0 -13 -11 -13q-7 0 -104 55l-62 33q-43 28 -43 46zM229 458q126 0 126 -85q0 -45 -7 -125l-7 -125q0 -64 44 -64q22 0 46 23l8 3l7 -3l4 -8l-1 -4l-1 -5q-6 -30 -45 -51q-36 -21 -70 -21q-37 0 -52 19l-28 36l-5 1
l-7 -3q-17 -21 -63 -40t-79 -19q-85 0 -85 72q0 63 61 109q33 24 114 55q63 24 65.5 36.5t3.5 26.5t1 44q0 47 -9 67q-15 29 -57 29q-47 0 -73 -33l-36 -63q-21 -33 -61 -33q-20 0 -20 23q0 16 20 45q65 93 206 93zM174 41q82 0 82 142q0 30 -17 30q-9 0 -29 -8
q-36 -13 -65 -42q-32 -34 -32 -69q0 -53 61 -53z" />
    <glyph glyph-name="aacute" unicode="&#xe1;" horiz-adv-x="423" 
d="M301 687q13 0 24 -17q12 -15 12 -29t-96 -73t-114 -59q-12 0 -12 16l16 16q140 146 170 146zM228 457q126 0 126 -85q0 -45 -7 -125l-7 -125q0 -64 44 -64q22 0 46 23l8 3l7 -3l4 -8l-1 -4l-1 -5q-6 -30 -45 -51q-36 -21 -70 -21q-37 0 -52 19l-28 36l-5 1l-7 -3
q-17 -21 -63 -40t-79 -19q-85 0 -85 72q0 63 61 109q33 24 114 55q63 24 65.5 36.5t3.5 26.5t1 44q0 47 -9 67q-15 29 -57 29q-47 0 -73 -33l-36 -63q-21 -33 -61 -33q-20 0 -20 23q0 16 20 45q65 93 206 93zM173 40q82 0 82 142q0 30 -17 30q-9 0 -29 -8q-36 -13 -65 -42
q-32 -34 -32 -69q0 -53 61 -53z" />
    <glyph glyph-name="acircumflex" unicode="&#xe2;" horiz-adv-x="423" 
d="M202 686q21 0 37 -22l22 -41l33 -56q24 -40 26 -53l-1 -6l-9 -7l-6 1l-54 53q-31 31 -55 47q-9 -3 -52.5 -50t-51.5 -50h-5q-9 3 -9 13q0 6 51 92l29 50q21 29 45 29zM229 456q126 0 126 -85q0 -45 -7 -125l-7 -125q0 -64 44 -64q22 0 46 23l8 3l7 -3l4 -8l-1 -4l-1 -5
q-6 -30 -45 -51q-36 -21 -70 -21q-37 0 -52 19l-28 36l-5 1l-7 -3q-17 -21 -63 -40t-79 -19q-85 0 -85 72q0 63 61 109q33 24 114 55q63 24 65.5 36.5t3.5 26.5t1 44q0 47 -9 67q-15 29 -57 29q-47 0 -73 -33l-36 -63q-21 -33 -61 -33q-20 0 -20 23q0 16 20 45q65 93 206 93
zM174 39q82 0 82 142q0 30 -17 30q-9 0 -29 -8q-36 -13 -65 -42q-32 -34 -32 -69q0 -53 61 -53z" />
    <glyph glyph-name="atilde" unicode="&#xe3;" horiz-adv-x="423" 
d="M134 654q27 0 79 -19t76 -19q18 0 33.5 18.5t19.5 19.5h4l5 -1l7 -10q-10 -33 -44 -60t-67 -27q-24 0 -68.5 18t-68.5 18q-17 0 -35.5 -15.5t-24.5 -15.5l-11 3l-3 9q0 21 36 51t62 30zM228 458q126 0 126 -85q0 -45 -7 -125l-7 -125q0 -64 44 -64q22 0 46 23l8 3l7 -3
l4 -8l-1 -4l-1 -5q-6 -30 -45 -51q-36 -21 -70 -21q-37 0 -52 19l-28 36l-5 1l-7 -3q-17 -21 -63 -40t-79 -19q-85 0 -85 72q0 63 61 109q33 24 114 55q63 24 65.5 36.5t3.5 26.5t1 44q0 47 -9 67q-15 29 -57 29q-47 0 -73 -33l-36 -63q-21 -33 -61 -33q-20 0 -20 23
q0 16 20 45q65 93 206 93zM173 41q82 0 82 142q0 30 -17 30q-9 0 -29 -8q-36 -13 -65 -42q-32 -34 -32 -69q0 -53 61 -53z" />
    <glyph glyph-name="adieresis" unicode="&#xe4;" horiz-adv-x="423" 
d="M110 652q26 0 43 -17t17 -43q0 -23 -17.5 -40.5t-40.5 -17.5q-24 0 -42 18t-18 41t17.5 41t40.5 18zM296 653q23 0 39 -19t16 -41q0 -25 -19 -43q-19 -16 -44 -16q-20 0 -38 19q-16 21 -16 42q0 25 18.5 41.5t43.5 16.5zM225 459q130 0 130 -85q0 -45 -7 -125
q0 -30 -3 -72t-3 -53q0 -66 42 -66q13 0 31 12.5t24 14.5h4q6 -4 7 -13q0 -29 -45 -56q-39 -24 -72 -24q-51 0 -77 54l-5 2q-12 -3 -59 -34q-40 -26 -95 -26q-33 0 -58 18t-25 52q0 70 79 122q44 27 143 61q18 6 21 24l2 66q0 44 -9 65q-14 30 -53 30q-48 0 -77 -33l-35 -62
q-21 -33 -58 -33q-24 0 -24 23l8 25q63 113 214 113zM171 43q84 0 84 140q0 27 -17 31q-45 -6 -84 -42.5t-39 -80.5q0 -48 56 -48z" />
    <glyph glyph-name="aring" unicode="&#xe5;" horiz-adv-x="423" 
d="M196 688q36 0 64 -24t28 -62q0 -37 -24 -64q-25 -25 -62 -25q-35 0 -60.5 27.5t-25.5 63.5q0 30 24 57t56 27zM196 547h11q19 0 34 15.5t15 36.5q0 24 -15.5 39.5t-37.5 15.5q-21 0 -37.5 -16t-16.5 -36q0 -19 13 -38q14 -17 34 -17zM220 458q134 0 134 -89q0 -20 -1 -34
q-5 -68 -5 -87q0 -29 -3 -69t-3 -52q0 -69 42 -69q12 0 32 13l22 13h4q5 -3 8 -11l-2 -9q-6 -26 -45.5 -49t-69.5 -23q-23 0 -47.5 15t-30.5 39l-4 2l-3 -1q-7 -3 -13.5 -6t-26.5 -16l-49 -28q-30 -11 -61 -11q-36 0 -60 18t-24 53q0 103 168 165l54 18q16 6 19.5 24.5
t3.5 66.5q0 49 -10 68q-15 26 -61 26q-44 0 -70 -33l-35 -62q-21 -33 -56 -33q-25 0 -25 23q0 10 17 38q61 100 201 100zM112 86q0 -18 17 -32q18 -12 38 -12q42 0 66 34q21 30 21 75v31q0 13 -4 24l-8 6l-6 1q-43 0 -83.5 -42t-40.5 -85z" />
    <glyph glyph-name="ae" unicode="&#xe6;" horiz-adv-x="634" 
d="M454 461q70 0 122 -41.5t52 -110.5q0 -12 -7 -16q-27 -4 -77 -4l-66 2l-66 1q-39 0 -62 -3l-15 -4l-8 -10q-3 -6 -3 -22q0 -77 39 -133q44 -61 120 -61q44 0 119 44l8 2q11 0 14 -18q-12 -37 -78 -70q-60 -30 -104 -30q-69 0 -149 67q-82 -71 -171 -71q-44 0 -75 19
q-36 23 -36 63q0 57 57 102q34 26 108 58l52 20q17 9 17 46v32q0 104 -68 104q-38 0 -62 -33l-31 -62q-19 -34 -52 -34t-33 27q0 49 73 95q68 40 120 40q67 0 119 -43q85 44 143 44zM375 319q158 0 158 63q0 50 -85 50q-37 0 -70 -29q-37 -29 -37 -64q0 -20 34 -20zM173 25
q33 0 51 38q13 33 13 68v47q0 31 -24 31q-38 0 -69 -40q-15 -19 -23 -39t-8 -40q0 -27 16 -47q17 -18 44 -18z" />
    <glyph glyph-name="ccedilla" unicode="&#xe7;" horiz-adv-x="423" 
d="M165 -202q70 0 70 51q0 9 -12 20q-11 8 -22 8q-9 0 -22.5 -5.5t-20.5 -5.5q-5 3 -6 5q2 12 61 131h35l-30 -67q81 0 81 -73q0 -41 -40 -68q-36 -22 -78 -22q-40 0 -79 18q-47 21 -47 58q0 35 43 35q21 -12 21 -28q0 -24 -22 -33q15 -24 68 -24zM281 469q50 0 90 -13
q58 -18 58 -55q0 -51 -39 -51q-24 0 -57.5 44.5t-66.5 44.5q-66 0 -106 -73q-32 -61 -32 -134q0 -77 43.5 -132t120.5 -55q19 0 51 12q37 15 50 18q14 -3 17 -17q0 -32 -77 -56q-62 -17 -106 -17q-88 0 -148.5 66.5t-60.5 156.5q0 108 77 184q39 38 85.5 57.5t100.5 19.5z
" />
    <glyph glyph-name="egrave" unicode="&#xe8;" horiz-adv-x="445" 
d="M70 643q0 12 12 27t25 16q20 0 181 -155l3 -10q0 -11 -13 -11q-19 0 -108.5 55.5t-99.5 72.5v5zM250 460q56 0 112 -39q60 -43 60 -98q0 -20 -7 -30l-26 -3l-177 -2q-54 0 -81 -3q-13 -8 -13 -29q0 -79 35 -134q42 -66 116 -66q35 0 73 18l66 35q16 0 16 -14
q0 -7 -25 -33q-75 -78 -167 -78q-94 0 -153 66t-59 159q0 101 65 176t165 75zM133 326q6 -9 14 -10h25q156 0 156 63q0 27 -20.5 42t-49.5 15q-41 0 -83.5 -30.5t-42.5 -70.5z" />
    <glyph glyph-name="eacute" unicode="&#xe9;" horiz-adv-x="445" 
d="M130 532l90 87q74 66 90 68q12 0 24.5 -15.5t13.5 -30.5q0 -14 -94.5 -72.5t-115.5 -58.5q-11 0 -11 15zM250 459q56 0 112 -39q60 -43 60 -98q0 -20 -7 -30l-26 -3l-177 -2q-54 0 -81 -3q-13 -8 -13 -29q0 -79 35 -134q42 -66 116 -66q35 0 73 18l66 35q16 0 16 -14
q0 -7 -25 -33q-75 -78 -167 -78q-94 0 -153 66t-59 159q0 101 65 176t165 75zM133 325q6 -9 14 -10h25q156 0 156 63q0 27 -20.5 42t-49.5 15q-41 0 -83.5 -30.5t-42.5 -70.5z" />
    <glyph glyph-name="ecircumflex" unicode="&#xea;" horiz-adv-x="445" 
d="M211 686q20 0 38 -22l22 -41q29 -45 60 -108q-3 -9 -11 -14q-15 2 -56 45q-45 48 -59 55q-13 -6 -55 -51t-50 -48l-4 1q-9 4 -10 13q0 8 52 91l29 49q21 30 44 30zM250 458q56 0 112 -39q60 -43 60 -98q0 -20 -7 -30l-26 -3l-177 -2q-54 0 -81 -3q-13 -8 -13 -29
q0 -79 35 -134q42 -66 116 -66q35 0 73 18l66 35q16 0 16 -14q0 -7 -25 -33q-75 -78 -167 -78q-94 0 -153 66t-59 159q0 101 65 176t165 75zM133 324q6 -9 14 -10h25q156 0 156 63q0 27 -20.5 42t-49.5 15q-41 0 -83.5 -30.5t-42.5 -70.5z" />
    <glyph glyph-name="edieresis" unicode="&#xeb;" horiz-adv-x="445" 
d="M115 651q25 0 42 -17q19 -16 19 -40q0 -26 -17 -43.5t-43 -17.5q-23 0 -41 17q-17 19 -17 40q0 24 15.5 42.5t41.5 18.5zM296 651q12 0 37 -11q23 -23 23 -50q0 -22 -17 -40t-39 -18q-23 0 -42 18t-19 44q0 23 16.5 40t40.5 17zM250 459q56 0 112 -39q60 -43 60 -98
q0 -20 -7 -30l-26 -3l-177 -2q-54 0 -81 -3q-13 -8 -13 -29q0 -79 35 -134q42 -66 116 -66q35 0 73 18l66 35q16 0 16 -14q0 -7 -25 -33q-75 -78 -167 -78q-94 0 -153 66t-59 159q0 101 65 176t165 75zM133 325q6 -9 14 -10h25q156 0 156 63q0 27 -20.5 42t-49.5 15
q-41 0 -83.5 -30.5t-42.5 -70.5z" />
    <glyph glyph-name="igrave" unicode="&#xec;" horiz-adv-x="233" 
d="M-28 643q0 13 11.5 28t24.5 15q25 0 180 -155l4 -9q0 -11 -12 -13q-9 0 -103 55l-61 34q-44 26 -44 45zM77 319q0 35 -31 44t-35 22q0 8 10 17q58 11 97 41q7 6 19.5 14t32.5 19q13 -3 14 -11q0 -30 -6 -92.5t-6 -93.5v-158q0 -54 6 -67t23 -17q23 -3 41 -15l1 -7
q0 -16 -21 -16q-8 0 -20.5 1t-28.5 4l-48 5l-56 -4l-56 -3q-9 0 -15 7l-2 6q3 14 27.5 19t33.5 11q18 15 18 55l1 110z" />
    <glyph glyph-name="iacute" unicode="&#xed;" horiz-adv-x="233" 
d="M212 687q13 0 24 -17q4 -6 7 -12.5t4 -16.5q0 -14 -96 -73t-113 -59q-12 0 -12 16q16 22 91 90q80 72 95 72zM77 317q0 35 -31 44t-35 22q0 8 10 17q58 11 97 41q7 6 19.5 14t32.5 19q13 -3 14 -11q0 -30 -6 -92.5t-6 -93.5v-158q0 -54 6 -67t23 -17q23 -3 41 -15l1 -7
q0 -16 -21 -16q-8 0 -20.5 1t-28.5 4l-48 5l-56 -4l-56 -3q-9 0 -15 7l-2 6q3 14 27.5 19t33.5 11q18 15 18 55l1 110z" />
    <glyph glyph-name="icircumflex" unicode="&#xee;" horiz-adv-x="233" 
d="M112 686q21 0 37 -22l23 -40q59 -100 59 -109q0 -5 -9 -14h-4l-3 1l-55 46q-32 26 -47 50l-7 4q-14 -7 -57 -56q-38 -44 -52 -44q-7 3 -10 13q0 8 51 92l30 50q21 29 44 29zM77 318q0 35 -31 44t-35 22q0 8 10 17q58 11 97 41q7 6 19.5 14t32.5 19q13 -3 14 -11
q0 -30 -6 -92.5t-6 -93.5v-158q0 -54 6 -67t23 -17q23 -3 41 -15l1 -7q0 -16 -21 -16q-8 0 -20.5 1t-28.5 4l-48 5l-56 -4l-56 -3q-9 0 -15 7l-2 6q3 14 27.5 19t33.5 11q18 15 18 55l1 110z" />
    <glyph glyph-name="idieresis" unicode="&#xef;" horiz-adv-x="233" 
d="M16 651q25 0 42.5 -17t17.5 -42q0 -24 -17.5 -41.5t-42.5 -17.5q-24 0 -41.5 17.5t-17.5 41.5q0 20 18.5 39.5t40.5 19.5zM196 652q8 0 15 -2t23 -9q23 -23 23 -45q0 -24 -16 -43t-41 -19q-23 0 -44 18q-18 18 -18 42q0 23 17.5 40.5t40.5 17.5zM77 319q0 35 -31 44
t-35 22q0 8 10 17q58 11 97 41q7 6 19.5 14t32.5 19q13 -3 14 -11q0 -30 -6 -92.5t-6 -93.5v-158q0 -54 6 -67t23 -17q23 -3 41 -15l1 -7q0 -16 -21 -16q-8 0 -20.5 1t-28.5 4l-48 5l-56 -4l-56 -3q-9 0 -15 7l-2 6q3 14 27.5 19t33.5 11q18 15 18 55l1 110z" />
    <glyph glyph-name="ntilde" unicode="&#xf1;" 
d="M193 654q27 0 78 -19t76 -19q17 0 35 19q15 18 20 19l7 -2q6 -6 7 -11q0 -25 -40.5 -55t-68.5 -30q-24 0 -69 18t-69 18q-15 0 -33.5 -15.5t-25.5 -15.5l-11 3l-3 4v5q0 22 36.5 51.5t60.5 29.5zM72 120l-1 63l-1 65l1 24v23q0 35 -24 47t-24 22q0 6 26 20.5t52 37.5
l44 42q9 9 17 9l6 -5l2 -7q-4 -34 -6.5 -48.5t-3.5 -21.5l4 -4l36 23q66 46 134 46q75 0 110 -42q29 -37 29 -117l-3 -105l-2 -105q0 -38 18 -47l50 -15l6 -8q-1 -7 -5 -11l-13 -3l-46 3l-45 3l-54 -3l-53 -2q-22 0 -22 13l1 5l2 3q10 2 18 5t24 12q30 18 30 129l-1 38
l-1 38q0 76 -12 105q-20 47 -87 47q-80 0 -102 -61q-12 -30 -12 -128q0 -148 20 -165q9 -6 36 -15q27 -6 30 -10l2 -9l-2 -4q-6 -6 -15 -6l-66 3l-66 3l-36 -3l-36 -2q-14 0 -16 12q0 9 16 16l24 10q17 12 17 80z" />
    <glyph glyph-name="ograve" unicode="&#xf2;" 
d="M120 643q0 11 12 27t25 16q25 0 180 -155l4 -10q0 -11 -12 -11q-19 0 -110 56t-99 72v5zM275 467q103 0 176 -70t73 -173q0 -107 -82 -176q-78 -64 -187 -64q-94 0 -166 73.5t-72 169.5q0 100 79 170t179 70zM270 9q69 0 110 77q34 65 34 139q0 83 -32 143
q-41 73 -117 73q-71 0 -109 -69q-28 -56 -28 -135q0 -76 34 -144q41 -84 108 -84z" />
    <glyph glyph-name="oacute" unicode="&#xf3;" 
d="M360 687q13 0 24 -17q12 -14 13 -29q0 -12 -95 -72t-115 -60q-14 0 -11 16q16 22 92.5 92t91.5 70zM274 467q103 0 176 -70t73 -173q0 -107 -82 -176q-78 -64 -187 -64q-94 0 -166 73.5t-72 169.5q0 100 79 170t179 70zM269 9q69 0 110 77q34 65 34 139q0 83 -32 143
q-41 73 -117 73q-71 0 -109 -69q-28 -56 -28 -135q0 -76 34 -144q41 -84 108 -84z" />
    <glyph glyph-name="ocircumflex" unicode="&#xf4;" 
d="M260 686q20 0 38 -22l23 -41q29 -45 60 -108q-3 -9 -11 -14q-14 0 -56 45q-21 23 -36.5 37.5t-23.5 18.5q-14 -8 -56 -53.5t-48 -46.5l-5 1q-9 6 -9 12t51 92l29 49q21 30 44 30zM275 467q103 0 176 -70t73 -173q0 -107 -82 -176q-78 -64 -187 -64q-94 0 -166 73.5
t-72 169.5q0 100 79 170t179 70zM270 9q69 0 110 77q34 65 34 139q0 83 -32 143q-41 73 -117 73q-71 0 -109 -69q-28 -56 -28 -135q0 -76 34 -144q41 -84 108 -84z" />
    <glyph glyph-name="otilde" unicode="&#xf5;" 
d="M193 654q27 0 78 -19t76 -19q17 0 35 19q15 18 20 19l7 -2q6 -6 7 -11q0 -25 -40.5 -55t-68.5 -30q-24 0 -69 18t-69 18q-15 0 -33.5 -15.5t-25.5 -15.5l-11 3l-3 4v5q0 22 36.5 51.5t60.5 29.5zM275 468q103 0 176 -70t73 -173q0 -107 -82 -176q-78 -64 -187 -64
q-94 0 -166 73.5t-72 169.5q0 100 79 170t179 70zM270 10q69 0 110 77q34 65 34 139q0 83 -32 143q-41 73 -117 73q-71 0 -109 -69q-28 -56 -28 -135q0 -76 34 -144q41 -84 108 -84z" />
    <glyph glyph-name="odieresis" unicode="&#xf6;" 
d="M305 598q0 20 18.5 37.5t41.5 17.5t41 -18t18 -42q0 -23 -18 -41q-19 -16 -42 -16q-25 0 -43 18q-16 19 -16 44zM185 653q23 0 41 -19q16 -19 16 -45q0 -20 -19 -37.5t-39 -17.5q-26 0 -44 18q-16 19 -16 45q0 23 18.5 39.5t42.5 16.5zM266 467q109 0 183 -67.5
t74 -176.5q0 -103 -80 -173q-75 -66 -181 -66q-98 0 -172 72.5t-74 171.5q0 94 77.5 166.5t172.5 72.5zM269 9q69 0 111 76q35 64 35 140q0 83 -32 143q-41 73 -118 73q-72 0 -110 -69q-28 -56 -28 -135q0 -74 34 -143q43 -85 108 -85z" />
    <glyph glyph-name="divide" unicode="&#xf7;" horiz-adv-x="539" 
d="M1 278h501v-53h-501v53zM247 435q21 0 37.5 -16t16.5 -38q0 -21 -16 -37.5t-38 -16.5q-21 0 -37.5 16t-16.5 38q0 21 16 37.5t38 16.5zM247 174q21 0 37.5 -16t16.5 -37t-15.5 -37t-38.5 -16q-20 0 -38 15q-15 15 -15 38q0 20 15.5 36.5t37.5 16.5z" />
    <glyph glyph-name="oslash" unicode="&#xf8;" 
d="M476 470q18 -8 18 -17q0 -16 -47 -54q34 -23 56 -77q19 -51 19 -95q0 -105 -76 -174t-182 -69q-60 0 -119 33l-39 25q-60 -60 -65 -60q-22 0 -22 20q8 9 14 16q12 13 45 46l1 3l-2 3q-22 7 -41.5 62.5t-19.5 88.5q0 102 77 173.5t180 71.5q91 0 145 -44l28 28
q17 17 30 20zM377 375q-42 65 -105 65q-75 0 -113 -62q-31 -53 -31 -132q0 -24 4 -53.5t13 -61.5q41 40 116 122zM267 9q67 0 111 72q36 62 36 134q0 55 -19 127q-51 -42 -190 -196l-47 -50q38 -87 109 -87z" />
    <glyph glyph-name="ugrave" unicode="&#xf9;" horiz-adv-x="530" 
d="M110 643q0 11 12 27t25 16q18 0 89 -68l92 -87l4 -10q-2 -12 -13 -12q-19 0 -109.5 56t-99.5 73v5zM-10 432q0 12 16 12l65 -3l66 -2q18 0 18 -25l-4 -124l-4 -125q0 -60 19.5 -90t79.5 -30q70 0 94 42q9 16 14.5 42t5.5 67l4 114v72q0 27 -39 27q-21 0 -33.5 4t-16.5 10
l-1 6q1 5 2 6l4 5l8 3h11l30 -2l30 -2l38 2l41 3q23 0 23 -32q0 -29 -1 -48q-5 -94 -5 -117q0 -52 -2 -86t-4 -79q0 -23 20 -32q6 -2 14 -3t25 -1q23 0 32 -9v-5l-1 -4l-7 -7q-11 -4 -64 -14q-48 -6 -69 -15l-25 -8q-16 0 -16 25l2 29l3 28l-6 3l-3 -3q-12 -30 -68 -55
q-50 -22 -88 -22q-83 0 -115.5 42t-32.5 127l1 114l1 114q0 18 -20 25q-10 0 -16 1t-19 4l-6 6z" />
    <glyph glyph-name="uacute" unicode="&#xfa;" horiz-adv-x="530" 
d="M349 687q12 0 24 -15t14 -31q0 -15 -95 -73t-115 -58q-11 0 -11 15q18 23 91 90q78 72 92 72zM-11 432q0 12 16 12l65 -3l66 -2q18 0 18 -25l-4 -124l-4 -125q0 -60 19.5 -90t79.5 -30q70 0 94 42q9 16 14.5 42t5.5 67l4 114v72q0 27 -39 27q-21 0 -33.5 4t-16.5 10l-1 6
q1 5 2 6l4 5l8 3h11l30 -2l30 -2l38 2l41 3q23 0 23 -32q0 -29 -1 -48q-5 -94 -5 -117q0 -52 -2 -86t-4 -79q0 -23 20 -32q6 -2 14 -3t25 -1q23 0 32 -9v-5l-1 -4l-7 -7q-11 -4 -64 -14q-48 -6 -69 -15l-25 -8q-16 0 -16 25l2 29l3 28l-6 3l-3 -3q-12 -30 -68 -55
q-50 -22 -88 -22q-83 0 -115.5 42t-32.5 127l1 114l1 114q0 18 -20 25q-10 0 -16 1t-19 4l-6 6z" />
    <glyph glyph-name="ucircumflex" unicode="&#xfb;" horiz-adv-x="530" 
d="M251 686q20 0 38 -22l23 -40q16 -27 28 -49q6 -12 31 -60l-5 -11l-5 -3l-11 2l-32 30l-34 32l-32 33l-6 4q-17 -10 -51 -46l-49 -52l-5 -2h-4l-5 2l-6 12q0 9 52 91l30 49q21 30 43 30zM-10 432q0 12 16 12l65 -3l66 -2q18 0 18 -25l-4 -124l-4 -125q0 -60 19.5 -90
t79.5 -30q70 0 94 42q9 16 14.5 42t5.5 67l4 114v72q0 27 -39 27q-21 0 -33.5 4t-16.5 10l-1 6q1 5 2 6l4 5l8 3h11l30 -2l30 -2l38 2l41 3q23 0 23 -32q0 -29 -1 -48q-5 -94 -5 -117q0 -52 -2 -86t-4 -79q0 -23 20 -32q6 -2 14 -3t25 -1q23 0 32 -9v-5l-1 -4l-7 -7
q-11 -4 -64 -14q-48 -6 -69 -15l-25 -8q-16 0 -16 25l2 29l3 28l-6 3l-3 -3q-12 -30 -68 -55q-50 -22 -88 -22q-83 0 -115.5 42t-32.5 127l1 114l1 114q0 18 -20 25q-10 0 -16 1t-19 4l-6 6z" />
    <glyph glyph-name="udieresis" unicode="&#xfc;" horiz-adv-x="530" 
d="M157 653q25 0 42 -17q18 -15 18 -41q0 -25 -17 -43t-41 -18q-23 0 -42 18t-19 44q0 21 18 39t41 18zM334 653q28 0 45 -17q19 -16 19 -42q0 -21 -18 -40t-40 -19q-23 0 -42 16t-19 39t15.5 43t39.5 20zM-3 445l4 1l66 -3l64 -3q22 0 22 -22l-4 -121l-3 -121q0 -63 16 -91
q21 -38 82 -38q62 0 88 34.5t26 97.5l3 183l-1 30q-9 23 -74 23l-12 8l-2 7q3 15 25 15l26 -3l27 -2l43 3l43 4q23 0 23 -32q0 -30 -1 -49q-5 -96 -5 -119l-5 -169q0 -30 45 -30q44 0 46 -13l-3 -8q-6 -4 -36 -9q-14 -1 -67 -18q-20 -6 -36.5 -9.5t-26.5 -4.5q-13 0 -13 19
l2 29l2 29l-1 5l-3 2l-40 -38q-47 -41 -125 -41q-87 0 -120 51q-23 37 -23 133l1 212q0 21 -32 27q-30 4 -31 14q0 8 10 17z" />
    <glyph glyph-name="ydieresis" unicode="&#xff;" horiz-adv-x="465" 
d="M125 651q24 0 41.5 -17t17.5 -42q0 -24 -17.5 -41.5t-40.5 -17.5q-24 0 -42 18t-18 41q0 20 18.5 39.5t40.5 19.5zM303 652q14 0 39 -11q23 -23 23 -45q0 -24 -16 -43t-42 -19q-25 0 -42 18t-17 42q0 23 16.5 40.5t38.5 17.5zM-7 434q3 12 17 13l41 -2l40 -2l68 3l67 3
l8 -6l2 -5v-5q0 -5 -6 -11l-32 -8q-20 -3 -27 -19l-2 -9q0 -16 39 -129.5t49 -124.5l5 -1l5 1q12 11 58 120t46 131q0 18 -33.5 27t-34.5 22q0 15 22 15l32 -2l31 -2l42 1l42 1q15 0 15 -13q0 -5 -6 -9.5t-35 -16.5q-20 -6 -33 -34q-43 -90 -126 -276q-18 -48 -82 -193
l-47 -112q-38 -70 -86 -70q-23 0 -45 14.5t-22 38.5q0 18 15 35.5t35 17.5l21 -2l21 -2q27 0 41 20q10 15 37 77q24 57 26 74q0 19 -111 313l-29 76q-6 14 -34 24.5t-34 26.5z" />
    <glyph glyph-name="c128" unicode="&#x112;" horiz-adv-x="539" 
d="M421 496l-73 -129h159v-53h-187l-74 -132h261v-52h-289l-86 -154l-47 27l71 127h-150v52h179l73 132h-252v53h282l87 156z" />
    <glyph glyph-name="c129" unicode="&#x113;" horiz-adv-x="700" 
d="M510 385q53 0 94 -38.5t41 -92.5q0 -53 -38 -94t-90 -41q-54 0 -104 31q-26 16 -83 70q-62 -55 -84 -70q-50 -31 -104 -31q-51 0 -90.5 40.5t-39.5 93.5t40 93q21 21 43.5 30.5t51.5 9.5q48 0 99 -35q23 -15 83 -69q51 47 82 68q52 35 99 35zM147 336q-35 0 -60.5 -27
t-25.5 -61q0 -32 27 -59q28 -25 63 -25q40 0 81 29q7 5 25 21t41 38l-70 55q-46 29 -81 29zM507 164q33 0 61.5 24.5t28.5 58.5q0 36 -26 62q-24 26 -61 26t-81 -29q-21 -13 -69 -55q43 -41 66 -58q41 -29 81 -29z" />
    <glyph glyph-name="c141" unicode="&#x114;" horiz-adv-x="601" 
d="M570 0h-573l304 655zM60 47h392l-185 445z" />
    <glyph glyph-name="c142" unicode="&#x115;" horiz-adv-x="485" 
d="M194 0l-184 359l184 350h58l185 -350l-185 -359h-58zM223 658l-156 -299l156 -307l157 307z" />
    <glyph glyph-name="mu1" unicode="&#x116;" horiz-adv-x="566" 
d="M132 476v-316q0 -110 90 -110q28 0 61.5 22.5t45.5 50.5v353h82l1 -364q0 -30 11 -52q12 -29 38 -29q25 0 37 22l15 44h19q-27 -112 -115 -112q-42 0 -63 27q-15 20 -24 67q-72 -96 -150 -96q-28 0 -51 16l-45 31v-22q0 -26 15.5 -78.5t15.5 -75.5q0 -25 -11.5 -46
t-34.5 -21q-21 0 -35 24q-10 20 -10 45q0 27 13 76q1 5 7 33.5t6 42.5v468h82z" />
    <glyph glyph-name="c279" unicode="&#x117;" horiz-adv-x="297" 
d="M32 277q0 15 25 72l8 6l51 -4l53 1l52 1q36 0 47 -4q6 -5 6 -13q0 -6 -11.5 -37.5t-17.5 -36.5l-63 -1h-29h-26h-20h-16h-12q-39 0 -43 5z" />
    <glyph glyph-name="c281" unicode="&#x119;" horiz-adv-x="631" 
d="M423 627q51 0 99 -9q69 -13 74 -37.5t8 -46t3 -38.5l-1 -4v-4q-2 -3 -9 -5l-26 31q-29 33 -61 56q-45 30 -101 30q-104 0 -167 -96q-51 -81 -51 -196q0 -118 47 -196q57 -96 167 -96q54 0 97 34q22 18 59 64q25 33 37 34h4l3 -4l1 -3l-5 -36l-6 -47q-6 -25 -26 -36
q-67 -35 -165 -35q-90 0 -174 44q-92 47 -130 122q-33 63 -33 150q0 152 103 242q97 82 253 82zM449 324h-430l12 28h430zM425 268h-406l12 28h406z" />
    <glyph glyph-name="dotlessi" unicode="&#x131;" horiz-adv-x="233" 
d="M77 318q0 35 -31 44t-35 22q0 8 10 17q58 11 97 41q7 6 19.5 14t32.5 19q13 -3 14 -11q0 -30 -6 -92.5t-6 -93.5v-158q0 -54 6 -67t23 -17q23 -3 41 -15l1 -7q0 -16 -21 -16q-8 0 -20.5 1t-28.5 4l-48 5l-56 -4l-56 -3q-9 0 -15 7l-2 6q3 14 27.5 19t33.5 11q18 15 18 55
l1 110z" />
    <glyph glyph-name="OE" unicode="&#x152;" horiz-adv-x="1036" 
d="M394 716q44 0 130 -13t122 -13l146 3l145 3q27 0 34 -14l3 -38l2 -41l1 -41l-1 -22l-13 -4l-4 1q-4 4 -11 18q-24 63 -55.5 82.5t-99.5 19.5q-62 0 -81 -5.5t-19 -98.5l1 -63v-62q0 -36 15 -45q8 -5 51 -5h32q47 0 70 24q9 12 21 48q7 26 24 31q12 0 12 -15l-4 -71
l-4 -72l3 -37l3 -36q0 -12 -3 -18l-4 -3l-6 -1l-10 3q-6 6 -9 26l-5 29q-12 52 -103 52h-39q-26 0 -32 -6t-9 -34l-1 -133q0 -88 9 -108.5t73 -20.5q81 0 127 34q26 19 53 64q21 35 35 41q7 0 12 -8v-4q0 -31 -12 -78l-22 -77q-8 -9 -21 -11l-137 4l-137 5h-45l-45 -1
q-32 0 -99.5 -12t-102.5 -12q-150 0 -258 107t-108 257q0 162 106.5 266.5t269.5 104.5zM154 356q0 -125 60 -226q70 -115 188 -115q105 0 141 48q32 41 32 149l1 243q0 130 -34 174q-41 53 -169 53q-107 0 -169 -114q-50 -94 -50 -212z" />
    <glyph glyph-name="oe" unicode="&#x153;" horiz-adv-x="803" 
d="M12 227q0 96 82 166q78 66 176 66q81 0 146 -48l26 -22l29 19q81 51 150 51q63 0 115 -43t52 -104q0 -11 -4 -16q-10 -5 -210 -5q-58 0 -70.5 -2.5t-17 -14t-4.5 -35.5q0 -74 43.5 -129t118.5 -55q39 0 77 25t51 29l8 -1q3 -2 5 -10q0 -8 -13 -27q-24 -33 -78.5 -59.5
t-96.5 -26.5q-63 0 -128 37q-5 4 -16 10.5t-20 12.5l-23 -14q-77 -47 -169 -47q-102 0 -165.5 69.5t-63.5 173.5zM520 318q159 0 173 45l2 19q0 26 -23 39.5t-52 13.5q-35 0 -78.5 -31t-43.5 -66q0 -20 22 -20zM121 240q0 -84 32 -147q39 -81 114 -81q23 0 39 10l33 18
q63 72 63 160q0 83 -33 149q-39 83 -115 83q-69 0 -105 -64q-28 -53 -28 -128z" />
    <glyph glyph-name="Scaron" unicode="&#x160;" horiz-adv-x="754" 
d="M302 0h-281v154l14 -1q9 -57 63 -57h151l-2 26q-207 62 -207 258q0 126 97 204q89 71 219 71t219 -71q96 -77 96 -203q0 -195 -207 -258l-2 -27h150q51 0 64 58h14v-154h-281l15 145q135 57 135 238q0 108 -47 171q-54 71 -157 71q-102 0 -156 -72q-47 -64 -47 -171
q0 -180 135 -237z" />
    <glyph glyph-name="Ydieresis" unicode="&#x178;" horiz-adv-x="719" 
d="M425 880q25 0 43 -17t18 -41t-18 -42t-41 -18q-25 0 -43 18q-16 19 -16 44q0 21 18.5 38.5t38.5 17.5zM185 824q0 22 18.5 38.5t43.5 16.5q20 0 37.5 -17.5t17.5 -40.5q0 -25 -17 -42q-15 -18 -40 -18q-26 0 -44 18q-16 19 -16 45zM-11 686q3 15 22 15l71 -4l73 -4l63 2
l64 2h24q13 -6 14 -17q0 -14 -42 -19q-20 0 -30 -5t-11 -14q0 -17 60 -106l77 -109l28 -37q5 -6 16 -8l8 3l4 1q29 30 101 131q78 110 78 131q0 16 -44 16q-43 0 -43 22q0 14 39 14l30 -2l30 -1l63 3l63 4q23 0 29 -16q-1 -6 -38 -22q-40 -15 -51 -28q-48 -48 -203 -235
l-3 -1q-31 -37 -38.5 -61.5t-7.5 -79.5l-2 -71q0 -120 14 -134l6 -2q5 -5 60 -11q43 0 43 -23q-4 -16 -25 -16l-82 3l-80 3q-60 0 -152 -12q-18 3 -20 18l1 4q6 11 39 19l45 12q29 15 29 92q0 18 -2.5 65.5t-2.5 67.5q0 24 -21 58q-52 84 -123 186l-39 56q-23 33 -44 52
l-25 23q-12 12 -29 15l-18 1l-16 9z" />
    <glyph glyph-name="florin" unicode="&#x192;" horiz-adv-x="539" 
d="M492 0h-473v53h473v-53zM492 330l-473 -219v59l413 190l-413 189v60l473 -220v-59z" />
    <glyph glyph-name="circumflex" unicode="&#x2c6;" horiz-adv-x="0" 
d="M2 686q20 0 38 -22l23 -40q57 -100 58 -107v-4l-1 -4l-4 -5l-5 -3l-3 1q-11 0 -53 45q-45 48 -59 55q-19 -12 -73 -73q-17 -19 -27 -24l-4 -3h-5l-5 2l-5 11q0 9 52 92l29 49q21 30 44 30z" />
    <glyph glyph-name="caron" unicode="&#x2c7;" horiz-adv-x="0" 
d="M-119 681l3 2l4 1q16 -2 63.5 -50t52.5 -49q12 6 55 55q38 42 52 44q12 0 12 -15q-7 -15 -13 -25q-14 -22 -23 -36l-37 -66q-26 -41 -56 -41q-21 0 -40 28l-25 45q-50 82 -50 97l1 4z" />
    <glyph glyph-name="tilde" unicode="&#x2dc;" horiz-adv-x="0" 
d="M-65 654q27 0 78 -19t75 -19q18 0 33.5 18.5t22.5 19.5l7 -2q6 -6 7 -11q0 -24 -41 -54.5t-68 -30.5q-24 0 -70.5 18.5t-68.5 18.5q-16 0 -32 -14.5t-28 -17.5l-9 3l-3 4v5q0 23 36.5 52t60.5 29z" />
    <glyph glyph-name="endash" unicode="&#x2013;" horiz-adv-x="444" 
d="M63 349h351l5 -2l2 -5l-10 -30t-16 -42l-9 -7l-20 -1l-46 -1l-47 -1h-243l-6 8q27 81 39 81z" />
    <glyph glyph-name="emdash" unicode="&#x2014;" horiz-adv-x="655" 
d="M-10 317h660v-58h-660v58z" />
    <glyph glyph-name="quoteleft" unicode="&#x2018;" horiz-adv-x="211" 
d="M184 706l5 -3l3 -5q0 -7 -27 -28q-36 -25 -50 -41q-27 -29 -27 -60q0 -30 19 -40h6l10 2l10 2q22 0 39.5 -15.5t17.5 -38.5q0 -32 -26 -54q-6 -5 -17 -10.5t-29 -5.5q-40 0 -64.5 34t-24.5 76q0 50 53 118.5t102 68.5z" />
    <glyph glyph-name="quoteright" unicode="&#x2019;" horiz-adv-x="212" 
d="M101 707q40 0 65.5 -33.5t25.5 -74.5q0 -118 -141 -192h-8l-6 2l-3 9q2 6 27 27q30 25 46 46q24 33 24 69q0 21 -11 29l-20 -4l-17 -4q-25 0 -39 17t-14 42q0 30 20 48.5t51 18.5z" />
    <glyph glyph-name="quotesinglbase" unicode="&#x201a;" horiz-adv-x="211" 
d="M30 -164q6 10 36 31q33 21 44.5 34.5t17.5 27.5t6 32q0 40 -24 40l-12 -2l-12 -3q-20 0 -36 15t-16 38q0 27 23 53l22 11q12 6 25 6q38 0 63.5 -31.5t25.5 -70.5q0 -88 -92 -161q-43 -33 -63 -33l-7 4z" />
    <glyph glyph-name="quotedblleft" unicode="&#x201c;" horiz-adv-x="401" 
d="M363 706l9 -4l3 -10q0 -8 -28 -27q-36 -25 -49 -40q-27 -27 -27 -59q0 -33 16 -34l27 4q61 0 61 -60q0 -27 -19 -46.5t-47 -19.5q-42 0 -66.5 30.5t-24.5 75.5q0 60 41.5 114.5t103.5 75.5zM176 704q9 -3 12 -11l-3 -8q-54 -39 -67 -52q-35 -33 -35 -74q0 -27 21 -27
l12 2l13 2q21 0 40 -16t19 -37q0 -31 -18.5 -51.5t-49.5 -20.5q-44 0 -68 29.5t-24 75.5q0 59 45.5 118t102.5 70z" />
    <glyph glyph-name="quotedblright" unicode="&#x201d;" horiz-adv-x="401" 
d="M20 431l14 8q22 9 43 30l14 14q30 33 38 80q-6 18 -21 20l-15 -2l-14 -2q-24 0 -41 17q-15 18 -15 43q0 30 21 49t51 19q41 0 67 -33q21 -30 21 -73q0 -52 -21 -85.5t-56 -64.5q-43 -37 -72 -37q-14 0 -16 12zM207 430l4 4q30 0 68 51t38 82q0 17 -18 17l-13 -2l-12 -1
q-62 0 -62 62q0 30 21 47t51 17q43 0 66 -35q20 -31 20 -73q0 -95 -99 -161q-37 -23 -49 -25l-11 2l-5 6l-1 4z" />
    <glyph glyph-name="quotedblbase" unicode="&#x201e;" horiz-adv-x="401" 
d="M77 -126q51 45 51 86l-1 18q-1 9 -8 14l-15 -1l-15 -2q-63 0 -63 60q0 29 19.5 47t50.5 18q38 0 65 -33q22 -31 22 -73q0 -108 -115 -175q-22 -12 -34 -14q-7 6 -9 11zM319 -35q0 25 -22 25l-28 -3q-21 0 -38 18q-15 18 -15 41q0 28 19.5 48t47.5 20q41 0 66 -31t25 -72
q0 -60 -44 -118.5t-103 -72.5q-9 3 -12 11l4 10l29 21q71 52 71 103z" />
    <glyph glyph-name="dagger" unicode="&#x2020;" horiz-adv-x="614" 
d="M267 744q0 42 -16 57q-7 8 -29 12.5t-26 16.5l-1 4q0 16 16 17h185l8 -3l5 -5l2 -7q-6 -14 -25 -20q-24 -5 -32 -11q-22 -19 -22 -89v-157h145q41 0 54 13q6 6 9 28q0 20 14 31l9 3q6 -4 8 -8l4 -24l-2 -28l-1 -29q0 -72 7 -106q-3 -9 -13 -15q-12 1 -24.5 37.5
t-37.5 36.5l-171 1q0 -146 1 -279.5t2 -255.5q0 -50 21 -69q8 -8 36 -14q20 -3 26 -18l-6 -12q-3 -6 -12 -6l-53 2l-54 3q-20 0 -43.5 -1t-49.5 -4q-9 2 -12 5l-2 12q0 8 25 20l33 15q24 36 24 144l-2 456l-141 2q-22 0 -39.5 -5.5t-25.5 -35.5q-4 -28 -19 -29q-16 0 -16 20
v164l1 4l6 12l7 2q17 -5 21 -26q3 -26 16 -37.5t88 -11.5l102 3v185z" />
    <glyph glyph-name="daggerdbl" unicode="&#x2021;" horiz-adv-x="742" 
d="M718 581l-29 -61q-83 102 -230 102q-91 0 -161 -53t-95 -137h445l-30 -63h-429l-2 -33l2 -30h400l-30 -63h-356q27 -89 98 -140.5t168 -51.5q137 0 220 99v-85q-97 -77 -225 -77q-122 0 -213.5 68.5t-118.5 186.5h-113l30 63h71l-1 31l1 32h-101l30 63h83
q27 117 119.5 185t217.5 68q72 0 140.5 -27.5t108.5 -76.5z" />
    <glyph glyph-name="bullet" unicode="&#x2022;" horiz-adv-x="337" 
d="M301 358q0 -56 -36.5 -94t-94.5 -38q-55 0 -94.5 39t-39.5 92q0 54 40.5 93t95.5 39q53 0 91 -38.5t38 -92.5z" />
    <glyph glyph-name="ellipsis" unicode="&#x2026;" horiz-adv-x="1013" 
d="M222 0h-106v107h106v-107zM559 0h-105v107h105v-107zM897 0h-106v107h106v-107z" />
    <glyph glyph-name="guilsinglleft" unicode="&#x2039;" horiz-adv-x="337" 
d="M248 109l-159 125v93l159 125v-89l-106 -82l106 -82v-90z" />
    <glyph glyph-name="guilsinglright" unicode="&#x203a;" horiz-adv-x="337" 
d="M89 199l107 82l-107 82v89l159 -125v-93l-159 -125v90z" />
    <glyph glyph-name="uni20AC" unicode="&#x20ac;" horiz-adv-x="631" 
d="M425 268h-232q0 -51 14.5 -93t41.5 -79q57 -80 156 -80q54 0 97 34q22 18 59 64q25 33 37 34h4l3 -4l1 -3l-5 -36l-6 -47q-6 -25 -26 -36q-67 -35 -165 -35q-90 0 -174 44q-92 47 -130 122q-25 48 -31 115h-50l12 28h36v7l1 21h-49l12 28h39q15 131 116 205q94 70 237 70
q51 0 99 -9q69 -13 74 -37.5t8 -46t3 -38.5l-1 -4v-4q-2 -3 -9 -5l-26 31q-29 33 -61 56q-45 30 -101 30q-94 0 -155 -79q-49 -65 -61 -169h268l-12 -28h-258v-15v-13h246z" />
    <glyph glyph-name="trademark" unicode="&#x2122;" horiz-adv-x="874" 
d="M309 641l3 -93l-17 -1v9q0 41 -37 56q-8 3 -29.5 5.5t-43.5 2.5v-297q0 -27 48 -27v-17h-152l1 17q48 0 48 27v297q-56 0 -76 -10q-33 -14 -33 -63l-17 1l3 93h302zM448 641l125 -274l120 274h107v-17h-8q-38 0 -38 -24v-277q0 -27 47 -27v-17h-153l1 17q48 0 48 27v264
l-128 -308h-17l-137 292l1 -248q0 -27 48 -27v-17h-123l1 17q48 0 48 27v268q0 24 -10.5 28.5t-40.5 4.5v17h109z" />
    <glyph glyph-name="fraction" unicode="&#x2215;" horiz-adv-x="106" 
d="M214 695q5 5 15 5q7 0 9 -2l3 -6l-1 -4l-54 -108l-114 -232l-102 -207l-61 -132l-8 -7l-9 -1h-8l-3 1l-2 3q0 9 153 318z" />
    </font>
</defs>
</svg>
